<svg xmlns="http://www.w3.org/2000/svg" width="31.97" height="37.3" viewBox="0 0 31.97 37.3">
	<style type="text/css">
		.st0{fill:#231f20;}
	</style>
	<path class="st0" d="M0,21.31C0,30.14 7.15,37.3 15.98,37.3C15.98,28.47 8.82,21.31 0,21.31M15.98,7.99C18.43,7.99 20.42,9.98 20.42,12.43C20.42,14.88 18.43,16.87 15.98,16.87C13.53,16.87 11.54,14.88 11.54,12.43C11.54,9.98 13.53,7.99 15.98,7.99M4.62,16.43C4.62,18.88 6.61,20.87 9.06,20.87C10,20.87 10.87,20.57 11.58,20.08L11.54,20.42C11.54,22.87 13.53,24.86 15.98,24.86C18.43,24.86 20.42,22.87 20.42,20.42L20.38,20.08C21.1,20.58 21.97,20.87 22.9,20.87C25.35,20.87 27.34,18.88 27.34,16.43C27.34,14.66 26.3,13.14 24.8,12.43C26.29,11.72 27.34,10.2 27.34,8.43C27.34,5.98 25.35,3.99 22.9,3.99C21.97,3.99 21.1,4.28 20.38,4.77L20.42,4.44C20.42,1.98 18.43,0 15.98,0C13.53,0 11.54,1.98 11.54,4.44L11.58,4.77C10.86,4.28 10,3.99 9.06,3.99C6.61,3.99 4.62,5.98 4.62,8.43C4.62,10.2 5.66,11.72 7.16,12.43C5.66,13.14 4.62,14.66 4.62,16.43M15.98,37.3C24.81,37.3 31.97,30.14 31.97,21.31C23.14,21.31 15.98,28.47 15.98,37.3"/>
</svg>