<svg xmlns="http://www.w3.org/2000/svg" width="46.57" height="27.33" viewBox="0 0 46.57 27.33">
	<style type="text/css">
		.st0{fill:#000000;}
	</style>
	<path class="st0" d="M3.02 2.71L43.22 2.71L43.22 24.94L3.02 24.94ZM3.02,24.94M42.66,0L3.9,0C1.74,0 0,1.74 0,3.9L0,23.42C0,25.58 1.74,27.33 3.9,27.33L42.66,27.33C44.82,27.33 46.57,25.58 46.57,23.42L46.57,3.9C46.57,1.74 44.82,0 42.66,0"/>
	<path class="st0" d="M23.28,8.51C26.22,8.51 28.6,10.89 28.6,13.83C28.6,16.76 26.22,19.14 23.28,19.14C20.35,19.14 17.97,16.76 17.97,13.83C17.97,10.89 20.35,8.51 23.28,8.51M6.92 6.62L39.32 6.62L39.32 21.04L6.92 21.04Z"/>
</svg>