<svg xmlns="http://www.w3.org/2000/svg" width="34.37" height="34.37" viewBox="0 0 34.37 34.37">
	<style type="text/css">
		.st0{fill:#1a150f;}
	</style>
	<path class="st0" d="M0.28,14.06C-0.09,16.14 -0.09,18.27 0.29,20.36L4.41,17.15Z"/>
	<path class="st0" d="M24.4,1.58C19.62,-0.62 13.95,-0.55 9.14,1.99L16.66,7.61Z"/>
	<path class="st0" d="M33.9,13.17L29.09,16.92L34.02,20.61C34.52,18.17 34.48,15.63 33.9,13.17"/>
	<path class="st0" d="M9.2,32.41C14.05,34.94 19.93,35.06 24.93,32.52L16.84,26.46Z"/>
	<path class="st0" d="M7.91,14.43L1.68,9.76C1.36,10.43 1.08,11.12 0.85,11.82L6.16,15.79Z"/>
	<path class="st0" d="M18.59,25.1L26.92,31.34C27.2,31.15 27.47,30.95 27.74,30.74C28.06,30.49 28.37,30.23 28.66,29.97L20.34,23.73Z"/>
	<path class="st0" d="M11.41,11.7L4,6.15C3.53,6.7 3.11,7.28 2.73,7.88L9.66,13.07Z"/>
	<path class="st0" d="M22.09,22.37L30.18,28.43C30.65,27.89 31.08,27.32 31.48,26.73L23.84,21.01Z"/>
	<path class="st0" d="M14.91,8.98L7.19,3.2C7,3.34 6.81,3.48 6.62,3.62C6.22,3.93 5.84,4.26 5.48,4.59L13.16,10.34Z"/>
	<path class="st0" d="M25.59,19.64L32.56,24.87C32.89,24.2 33.17,23.52 33.41,22.83L27.34,18.28Z"/>
	<path class="st0" d="M26.44,2.7L0.88,22.62C1.11,23.32 1.39,24.01 1.71,24.68L28.23,4.02C27.66,3.54 27.06,3.1 26.44,2.7"/>
	<path class="st0" d="M30.74,6.62C30.44,6.23 30.12,5.86 29.8,5.51L2.78,26.56C3.04,26.96 3.32,27.36 3.62,27.74C3.77,27.93 3.91,28.1 4.06,28.28L31.15,7.17C31.02,6.99 30.88,6.8 30.74,6.62"/>
	<path class="st0" d="M32.29,8.99L5.55,29.83C6.09,30.33 6.66,30.8 7.25,31.22L33.22,10.99C32.95,10.31 32.65,9.64 32.29,8.99"/>
</svg>