<svg xmlns="http://www.w3.org/2000/svg" width="54.15" height="23.18" viewBox="0 0 54.15 23.18">
	<style type="text/css">
		.st0{fill:#000000;}
	</style>
	<path class="st0" d="M40.31,5.71C36.66,4.74 32.47,4.04 27.95,4.04C25.06,4.04 22.49,4.28 20.24,4.66L13.45,0L0,0L5.81,6.18L14.25,6.18C9.67,7.78 7.5,9.7 7.5,9.7L7.5,13.48C7.5,13.48 9.81,15.39 14.43,16.99L5.81,16.99L0,23.18L13.45,23.18L20.27,18.49C22.53,18.88 25.09,19.13 27.95,19.13C32.47,19.13 36.66,18.44 40.31,17.47C39.13,15.69 38.39,13.72 38.39,11.59C38.39,9.45 39.13,7.48 40.31,5.71"/>
	<path class="st0" d="M43.73,6.74C42.45,8.35 41.76,9.99 41.76,11.58C41.76,13.18 42.44,14.82 43.73,16.43C50.13,14.26 54.15,11.59 54.15,11.59C54.15,11.59 50.13,8.91 43.73,6.74"/>
</svg>