<svg xmlns="http://www.w3.org/2000/svg" width="32.66" height="32.48" viewBox="0 0 32.66 32.48">
	<style type="text/css">
		.st0{fill:#231f20;}
	</style>
	<path class="st0" d="M17.27 18.57L29.77 18.57L29.77 32.48L17.27 32.48ZM19.25,4.9C19.8,4.1 20.46,3.43 21.13,2.98C21.81,2.53 22.5,2.3 23.18,2.3L23.19,2.3C23.76,2.3 24.3,2.52 24.68,2.85C25.06,3.18 25.25,3.59 25.25,4.02C25.25,4.53 24.98,5.28 23.79,6.15C22.65,6.97 20.69,7.82 17.66,8.41C17.95,7.21 18.51,5.94 19.25,4.9M8.71,6.52C8.09,6.13 7.71,5.74 7.49,5.39C7.27,5.03 7.2,4.73 7.19,4.42C7.19,3.92 7.44,3.38 7.89,2.96C8.32,2.55 8.91,2.3 9.45,2.3L9.46,2.3C10.14,2.3 10.83,2.53 11.51,2.98C12.52,3.65 13.48,4.83 14.15,6.17C14.49,6.84 14.76,7.56 14.94,8.25C11.86,7.93 9.86,7.25 8.71,6.52M31.07,8.86L23.74,8.86C24.26,8.59 24.72,8.31 25.13,8.02C26.72,6.88 27.56,5.45 27.55,4.02C27.56,2.85 27,1.82 26.19,1.12C25.39,0.41 24.32,0 23.18,0C21.96,0 20.83,0.42 19.86,1.06C18.4,2.04 17.25,3.52 16.43,5.13C16.39,5.21 16.36,5.29 16.32,5.37C16.02,4.75 15.67,4.14 15.28,3.58C14.59,2.59 13.76,1.72 12.78,1.07C11.81,0.42 10.68,0 9.46,0C8.25,0 7.14,0.51 6.3,1.29C5.48,2.07 4.89,3.18 4.89,4.43C4.89,5.16 5.1,5.92 5.54,6.61C6.09,7.49 6.96,8.24 8.17,8.86L1.59,8.86C0.71,8.86 0,9.57 0,10.45L0,16.35L15.39,16.35L15.39,8.86L17.27,8.86L17.27,16.35L32.66,16.35L32.66,10.45C32.66,9.57 31.95,8.86 31.07,8.86M2.89 18.57L15.39 18.57L15.39 32.48L2.89 32.48Z"/>
</svg>