<svg display="none" xmlns="http://www.w3.org/2000/svg">
	<symbol id="logo-desc" viewBox="0 0 148.05 72.7">
		<g>
			<path d="M87.83,16.35C87.78,16.39 87.74,16.43 87.7,16.47C87.77,16.16 87.84,15.85 87.92,15.54C87.96,15.54 88,15.54 88.03,15.54C87.97,15.81 87.9,16.08 87.83,16.35M143.16,31.39C141.68,32.45 140.11,33.34 138.5,34.17C138.54,32.42 138.38,30.71 137.91,29.04C137.96,28.71 138.01,28.38 138.06,28.04C138.43,25.04 138.71,20.92 136.05,18.82C135.72,18.55 134.81,18.78 134.13,19.09C133.98,18.94 133.81,18.8 133.64,18.68C133.55,18.43 133.48,18.19 133.41,17.94C133.37,17.82 133.24,17.75 133.05,17.73C133.33,17.34 133.31,16.91 132.63,16.63C132.25,16.48 131.87,16.35 131.48,16.22C131.42,16.15 131.36,16.13 131.31,16.16L131.31,16.17C130.37,15.87 129.41,15.63 128.45,15.46C128.59,15.13 128.84,14.65 129,14.46C129.13,14.3 129.28,14.16 129.43,14.02C129.49,13.97 129.55,13.91 129.62,13.86C129.65,13.83 129.67,13.81 129.69,13.8C129.71,13.78 129.73,13.76 129.77,13.73C130.15,13.45 130.62,12.87 129.99,12.53C129.42,12.23 128.48,12.39 127.98,12.77C127.12,13.43 126.36,14.15 125.89,15.13C123.88,14.96 121.84,14.98 119.81,15.05C119.87,14.98 119.92,14.9 119.95,14.8C120.14,14.22 119.05,14.28 118.77,14.32C117.2,14.52 115.64,14.72 114.08,14.92C115.44,11.15 117.16,6.34 115.08,2.66C113.89,0.55 111.17,0.08 108.98,0C106.54,-0.07 104.08,0.46 101.94,1.64C97.18,4.26 94.83,9.35 93.73,14.78C93.24,14.12 91.43,14.35 91.09,15.25C90.97,15.57 90.86,15.89 90.76,16.22C90.6,16.39 90.48,16.6 90.42,16.85C90.4,16.91 90.39,16.97 90.38,17.02C90.31,17.02 90.25,17.03 90.18,17.03C90.2,16.92 90.22,16.82 90.24,16.72C90.39,16.61 90.49,16.49 90.52,16.35C91.1,14.06 91.68,11.76 92.47,9.53C92.74,8.78 89.96,9.13 89.67,9.96C89.24,11.15 88.88,12.36 88.55,13.58C88.38,13.66 88.19,13.77 88.12,13.91C88.11,13.94 88.09,13.98 88.08,14.01C87.97,13.92 87.81,13.86 87.61,13.83L87.61,12.87C87.61,12.44 84.79,12.84 84.79,13.63L84.79,15.2C84.62,15.27 84.46,15.36 84.31,15.46C84.25,15.52 84.19,15.58 84.13,15.64C84.05,15.71 84.01,15.79 84.01,15.88C84,15.91 83.99,15.93 83.98,15.96C83.97,15.98 83.95,16.01 83.93,16.03C83.81,16.15 83.75,16.36 83.9,16.49C84.09,16.65 84.41,16.66 84.64,16.65C84.69,16.65 84.74,16.64 84.79,16.64L84.79,17.11C84.56,17.11 84.34,17.11 84.11,17.1L83.7,17.05C83.68,16.67 83.03,16.6 82.35,16.72C82.36,16.67 82.36,16.63 82.35,16.58C82.25,15.98 82.18,15.38 82.12,14.79C82.36,14.71 82.59,14.61 82.8,14.47C82.96,14.37 83.13,14.25 83.13,14.04L83.13,13.85C83.13,13.67 82.72,13.64 82.63,13.64C82.43,13.63 82.23,13.65 82.04,13.68C81.97,12.38 81.96,11.07 81.96,9.76C81.96,8.92 79.14,9.44 79.14,10.51C79.14,12.3 79.14,14.08 79.33,15.86C79.24,15.85 79.15,15.86 79.06,15.87L79.06,14.33C79.06,13.29 77.76,13.11 76.91,13.52C77.23,13.26 77.4,12.9 77.28,12.49C76.88,11.07 76.5,9.66 76.31,8.2C76.12,6.8 73.29,7.52 73.48,8.95C73.68,10.41 74.05,11.83 74.46,13.24C74.69,14.07 75.8,14.13 76.56,13.75C76.34,13.95 76.19,14.2 76.19,14.51L76.19,15.14C76,15.04 75.75,14.98 75.42,14.98C74.36,14.98 73.75,15.87 74.02,16.46C73.86,16.43 73.69,16.4 73.53,16.38C73.15,15.13 72.84,13.86 72.82,12.55C72.8,11.6 71.55,11.5 70.71,11.87C70.7,11.82 70.69,11.76 70.66,11.71C70.27,10.9 70.09,10.03 69.88,9.17C69.55,7.82 66.72,8.57 67.06,9.93C67.21,10.57 67.36,11.21 67.57,11.83C67.56,11.83 67.54,11.84 67.52,11.84C67.22,11.92 66.92,12.05 66.66,12.23C65.83,12.31 64.84,12.79 64.91,13.44C64.97,13.91 65.04,14.39 65.12,14.86C64.58,14.95 64.03,15.04 63.48,15.12C63.19,14.34 62.98,13.52 62.86,12.68C62.73,11.76 61.31,11.83 60.53,12.42C59.76,10.36 58.74,8.4 57.41,6.66C54.79,3.22 50.31,2.05 46.17,2.86C44.27,3.24 42.43,4.05 41.13,5.51C39.92,6.86 39.77,8.6 39.96,10.32C40.11,11.81 40.57,14.32 41.54,16.29C41.19,16.28 40.83,16.33 40.59,16.43C40.31,16.55 40.03,16.68 39.76,16.82C37.82,16.85 35.88,16.84 33.95,16.75C29.78,16.55 25.65,15.89 21.46,16.01C20.53,16.03 19.92,16.73 19.99,17.27C18.95,17.77 18.26,18.58 17.85,19.56C16.12,18.41 14.37,17.29 12.51,16.34C11.83,15.99 9.21,17.05 10.23,17.57C12.07,18.51 13.79,19.64 15.51,20.78C16.02,21.13 16.83,20.92 17.35,20.71C17.38,20.7 17.44,20.68 17.51,20.64C17.21,22.08 17.36,23.7 17.76,25.13C17.79,25.24 17.85,25.33 17.93,25.4C17.91,25.74 17.9,26.08 17.92,26.42C17.92,26.47 17.92,26.52 17.92,26.58C17.52,26.77 17.21,27.06 17.16,27.42C16.97,28.83 16.88,30.24 16.85,31.65C16.58,31.85 16.39,32.12 16.37,32.45C16.14,35.79 16.41,39.1 16.84,42.4C17.02,45.09 17.53,47.74 18.01,50.39C18.07,50.81 18.12,51.23 18.17,51.64C17.91,52.78 17.78,54.04 17.94,55.13C17.06,55.3 16.21,55.99 16.7,56.74C17.47,57.9 18.35,58.76 19.31,59.39C18.68,59.29 17.89,59.5 17.44,59.95C16.62,60.76 15.72,61.48 14.91,62.29C14.48,62.71 14.59,63.22 15.2,63.36C15.85,63.52 16.71,63.31 17.19,62.83C18.01,62.02 18.91,61.3 19.73,60.49C19.97,60.25 20.03,59.97 19.93,59.76C23.14,61.49 27.16,61.03 31.04,60.7C30.16,62.29 29.5,63.97 28.87,65.7C28.61,66.42 31.38,66.07 31.67,65.26C32.28,63.59 32.91,61.92 33.78,60.37C37.52,60.49 41.26,60.49 44.99,60.42C45.14,60.6 45.41,60.72 45.74,60.76C49.01,61.07 52.23,60.66 55.43,60.06C60.22,59.83 65,59.53 69.79,59.25C77.32,59.06 84.85,58.9 92.38,58.93C92.48,59.04 92.58,59.14 92.69,59.25C92.97,59.5 93.31,59.59 93.67,59.58C93.73,59.58 93.8,59.59 93.87,59.59C94.59,59.63 95.3,59.68 96.01,59.74C96.17,59.78 96.35,59.8 96.57,59.79L96.58,59.79C97.36,59.85 98.14,59.93 98.92,59.99C99.09,60.21 99.42,60.34 99.71,60.35C103.52,60.6 107.33,60.88 111.14,61.06C111.28,61.29 111.67,61.4 111.96,61.4C119.02,61.46 127.23,64.2 133.52,59.66C134.02,59.3 133.79,58.79 133.25,58.68C133.14,58.66 133.03,58.65 132.93,58.65C132.93,58.63 132.94,58.62 132.95,58.6C134.14,55.83 135.12,52.97 135.89,50.05C136.26,49.85 136.53,49.56 136.54,49.19C136.59,48 136.73,46.78 136.91,45.55C137.08,44.67 137.22,43.78 137.35,42.89C137.74,40.72 138.16,38.52 138.37,36.35C140.65,35.2 142.91,34.01 144.99,32.53C146.56,31.41 144.21,30.65 143.16,31.39"/>
			<path d="M63.26,12.62C63.38,12.82 63.82,12.84 64.01,12.84C64.39,12.84 64.77,12.76 65.11,12.61C65.52,12.45 66.22,12.05 65.88,11.54C65.52,10.98 65.28,10.35 64.91,9.79C64.78,9.59 64.35,9.57 64.16,9.57C63.78,9.57 63.4,9.66 63.05,9.8C62.65,9.96 61.95,10.36 62.28,10.87C62.64,11.43 62.89,12.06 63.26,12.62"/>
			<path d="M20.68,10.9C20.89,11.55 21.79,11.55 22.33,11.41C22.8,11.28 23.72,10.79 23.5,10.15C23.29,9.52 23.07,8.85 22.61,8.37C22.13,7.86 21.28,7.95 20.71,8.22C20.29,8.41 19.53,9.05 20.01,9.57C20.39,9.97 20.49,10.34 20.68,10.9"/>
			<path d="M30.65,13.89C31.5,13.89 33.73,12.61 31.84,12.61C31,12.61 28.77,13.89 30.65,13.89"/>
			<path d="M122.56,12.27C122.9,12.34 123.27,12.3 123.61,12.21C123.93,12.12 124.31,11.98 124.55,11.73C124.91,11.38 125.28,11 125.51,10.56C125.62,10.36 125.69,10.16 125.51,9.97C125.32,9.77 125,9.72 124.75,9.72C124.37,9.71 123.99,9.79 123.64,9.94C123.39,10.04 123.02,10.23 122.88,10.49C122.79,10.68 122.67,10.84 122.53,11C122.53,11.01 122.52,11.02 122.51,11.03C122.5,11.04 122.49,11.05 122.48,11.06C122.42,11.13 122.35,11.2 122.29,11.26C122.13,11.42 121.94,11.63 122.01,11.88C122.07,12.12 122.34,12.22 122.56,12.27"/>
			<path d="M135.86,17.69C136.49,17.63 137.25,17.44 137.75,17.03C139.07,15.92 140.35,14.78 141.37,13.38C141.66,12.99 140.32,13.14 140.25,13.15C139.72,13.25 138.94,13.43 138.59,13.9C137.64,15.2 136.43,16.25 135.2,17.27C134.7,17.69 135.64,17.71 135.86,17.69"/>
			<path d="M146.73,44.77L141.86,44.77C141.25,44.77 140.39,45.23 140.31,45.9C140.22,46.64 141.06,46.83 141.61,46.83L146.48,46.83C147.1,46.83 147.96,46.36 148.04,45.69C148.13,44.95 147.28,44.77 146.73,44.77"/>
			<path d="M57.02,60.78C56.52,60.86 55.6,61.08 55.38,61.61C54.84,62.88 54.4,64.18 54.01,65.51C53.8,66.24 56.58,65.84 56.81,65.06C57.19,63.73 57.64,62.43 58.17,61.16C58.4,60.63 57.21,60.75 57.02,60.78"/>
			<path d="M61.6,63.37C61.25,63.37 60.9,63.43 60.57,63.52C60.23,63.61 59.9,63.73 59.6,63.91C59.46,63.99 59.26,64.11 59.26,64.3C59.26,64.41 59.25,64.53 59.24,64.64C59.22,64.75 59.18,64.84 59.12,64.93C59.12,64.92 59.12,64.92 59.13,64.91C59.06,65 59.02,65.09 59.15,65.17C59.34,65.28 59.65,65.25 59.86,65.23C60.23,65.19 60.6,65.1 60.96,64.98C61.2,64.89 61.57,64.77 61.75,64.57C61.9,64.41 61.99,64.28 62.04,64.07C62.07,63.89 62.09,63.72 62.09,63.54C62.08,63.37 61.66,63.37 61.6,63.37"/>
			<path d="M116.65,67.05C116.29,66.36 113.6,67.38 113.82,67.8C114.67,69.44 115.76,70.93 116.75,72.48C117.18,73.17 119.79,72.07 119.57,71.72C118.59,70.17 117.49,68.69 116.65,67.05"/>
			<path d="M120.74,64.71C120.44,64.12 119.67,64.15 119.11,64.29C118.76,64.39 117.63,64.89 117.92,65.46C118.3,66.24 118.69,67.02 119.08,67.8C119.38,68.39 120.15,68.37 120.71,68.22C121.06,68.12 122.19,67.62 121.91,67.05C121.52,66.27 121.13,65.49 120.74,64.71"/>
			<path d="M5.66,43.1C4.18,43.46 2.66,43.67 1.18,44.08C0.64,44.22 -0.15,44.72 0.02,45.39C0.2,46.07 1.15,46.1 1.69,45.96C3.16,45.55 4.68,45.34 6.17,44.98C6.71,44.85 7.51,44.33 7.33,43.66C7.14,42.98 6.2,42.97 5.66,43.1"/>
		</g>
		<g fill="#ffffff">	
			<path d="M43.75,40.1C43.66,37.39 43.23,34.71 43.27,31.99C43.3,29.8 43.66,27.54 42.9,25.44C42.95,25.2 43,24.96 43.05,24.72C43.24,23.67 39.75,24.23 39.2,25.19C38.85,25.47 38.67,25.81 38.82,26.16C38.86,26.24 38.89,26.33 38.92,26.42C38.26,29.65 37.34,32.78 36.28,35.92C35.87,37.12 35.38,38.29 34.97,39.48C34.38,38.37 33.79,37.27 33.31,36.07C31.92,32.61 30.67,29.11 28.98,25.77C29.17,24.23 25.75,24.39 25.08,25.81C24.26,27.52 24.36,29.24 24.63,31.07C24.94,33.13 24.99,35.16 25.01,37.24C25.06,41.25 25.38,45.25 25.44,49.26C25.08,49.66 24.97,50.15 25.34,50.65C25.51,50.87 25.71,51.04 25.92,51.21C26.83,51.94 29.45,51.31 29.45,49.92C29.43,45.76 29.13,41.61 29.02,37.45C29.01,37.04 29.01,36.64 29,36.23C29.06,36.37 29.11,36.52 29.17,36.67C29.82,38.29 30.49,39.86 31.38,41.36C32.25,42.85 32.69,44.46 33.2,46.08C33.01,46.3 32.89,46.55 32.96,46.8C32.92,46.98 33.03,47.09 33.22,47.16C33.86,47.71 35.07,47.44 35.75,47.15C36.04,47.03 36.31,46.89 36.58,46.73C36.93,46.51 37.47,46.04 37.32,45.56C37.29,45.46 37.26,45.37 37.23,45.28C37.7,43.99 37.94,42.66 38.2,41.31C38.48,39.87 38.99,38.5 39.51,37.14C39.56,37.76 39.62,38.39 39.67,39.01C39.87,41.59 39.7,44.13 39.68,46.71C39.67,47.56 39.73,48.36 39.9,49.19C39.96,49.54 40.27,51.02 40.18,51.1C39.56,51.66 39.74,52.36 40.57,52.54C41.49,52.75 42.67,52.44 43.36,51.8C44.57,50.68 44,48.93 43.73,47.52C43.27,45.15 43.82,42.51 43.75,40.1"/>
			<path d="M52.19,40.78C52.11,38.78 51.42,36.89 51.41,34.86C51.39,32.53 51.59,30.22 51.25,27.91C51.14,27.18 47.16,28.01 47.3,28.97C47.61,31.1 47.5,33.24 47.46,35.38C47.42,37.44 47.93,39.31 48.19,41.34C48.47,43.41 48.11,45.53 48.34,47.61C48.45,48.58 49.1,50.38 48.43,51.22C48.01,51.76 49.92,51.57 50,51.55C50.78,51.41 51.81,51.16 52.33,50.5C52.99,49.67 52.52,48.06 52.38,47.12C52.06,45.04 52.27,42.88 52.19,40.78"/>
			<path d="M68.67,37.43C66.58,34.62 62.72,36.65 60.03,35.88C58.64,35.48 58.62,33.59 58.62,32.45C58.63,31.01 58.51,29.7 58.35,28.27C58.23,27.21 58.32,26.13 59.1,25.34C59.24,25.19 59.97,25 59.92,25C60.27,24.93 60.6,24.92 60.99,24.9C62.56,24.83 65.65,25.14 65.05,27.41C64.78,28.43 68.68,27.84 68.96,26.77C70.19,22.12 61.61,23.02 59.19,23.66C56.96,24.25 54.5,25.52 54.37,28.1C54.31,29.33 54.64,30.5 54.7,31.72C54.76,33.12 54.5,34.52 54.99,35.87C56.08,38.88 60.56,37.46 62.84,37.63C66.72,37.92 65.56,43.15 65.61,45.59C65.64,46.89 66.8,49.05 65.82,50.14C65.22,50.8 63.82,50.84 63.01,50.91C62.18,50.98 60.78,51.23 60.24,50.45C59.24,49.02 60.33,46.61 60.12,44.97C59.99,44.04 56.01,44.88 56.16,46.03C56.51,48.68 54.75,52.23 58.59,52.69C61.05,52.98 63.83,52.52 66.16,51.75C67.36,51.35 68.48,50.8 69.43,49.94C70.47,48.99 70.13,47.57 69.85,46.36C69.17,43.42 70.59,40.03 68.67,37.43"/>
			<path d="M86.15,37.24C86.03,33.43 85.45,29.66 85.44,25.84C85.43,23.86 81.44,24.53 81.45,26.19C81.46,29.83 81.95,33.42 82.13,37.05C82.14,37.13 82.14,37.2 82.14,37.27C80.18,37.26 78.21,37.45 76.24,37.52C76.44,32.85 75.62,28.21 75.8,23.54C75.82,22.95 71.89,23.45 71.85,24.6C71.68,29.12 72.44,33.6 72.31,38.11C72.24,40.27 72.06,42.42 72.04,44.57C72.04,45.68 72.22,46.78 72.38,47.87C72.52,48.87 72.86,50.22 72.56,51.22C72.32,51.99 76.15,51.51 76.46,50.51C77.01,48.72 76.23,46.44 76.05,44.62C75.87,42.88 76.01,41.09 76.13,39.33C78.18,39.2 80.23,39.03 82.27,39.31C82.36,40.7 82.46,42.09 82.59,43.49C82.7,44.65 82.77,45.82 82.79,46.99C82.81,48.02 82.93,49.51 82.57,50.49C81.79,52.56 85.75,52.39 86.32,50.85C87.03,48.97 86.83,46.62 86.71,44.63C86.56,42.17 86.23,39.71 86.15,37.24"/>
			<path d="M103.24,41.76C102.29,38.97 100.84,36.53 99.59,33.89C100.6,31.92 101.62,29.95 102.55,27.95C103.38,26.12 104.01,24.09 105.65,22.81C106.23,22.36 106.21,21.9 105.39,21.85C104.51,21.79 103.31,22.04 102.6,22.6C101.1,23.77 100.15,25.18 99.37,26.9C98.43,28.97 97.46,31.01 96.43,33.03C96.36,33.18 96.28,33.33 96.21,33.48C95.71,33.8 95.41,34.25 95.56,34.76C94.76,36.34 93.95,37.91 93.04,39.41C92.74,33.83 92.08,28.25 91.88,22.66C91.83,21.38 87.87,22.18 87.93,23.72C88.17,30.65 89.16,37.57 89.22,44.5C89.21,44.51 89.19,44.53 89.18,44.55C88.87,44.86 88.98,45.04 89.23,45.15C89.23,46.92 89.17,48.69 89.02,50.46C88.54,51.21 89.48,51.61 90.11,51.61L90.21,51.61C90.96,51.61 92.86,51.25 92.95,50.23C93.14,48.11 93.21,45.99 93.19,43.88C94.79,42.15 96.1,40.22 97.28,38.19C98.04,39.69 98.77,41.19 99.29,42.82C100.15,45.58 101.61,48.13 102.44,50.9C102.99,52.73 106.94,51.65 106.4,49.85C105.56,47.07 104.17,44.5 103.24,41.76"/>
			<path d="M112.2,36.93C112.1,35.67 111.98,34.42 111.9,33.15C111.74,30.8 112.01,27.52 114.21,26.09C114.79,25.71 115.9,25.77 116.58,25.65C117.56,25.47 118.56,25.25 119.44,25.84C120.66,26.65 120.36,29.53 120.36,30.75C120.35,32.78 120.57,34.79 120.67,36.81C120.11,36.87 119.55,36.9 118.97,36.89C116.66,36.83 114.39,36.47 112.2,36.93M126.95,37.08C126.74,36.24 125.57,36.22 124.66,36.3C124.65,35.97 124.64,35.63 124.63,35.29C124.5,32.6 124.46,29.86 124.23,27.18C124.02,24.7 122.63,23.81 120.22,23.91C117.78,24 114.95,24.44 112.67,25.32C110.04,26.35 108.58,28.28 108.07,31.06C107.52,34.1 108.31,37.33 108.45,40.39C108.6,43.92 108.51,47.46 108.51,51C108.51,51.58 112.46,51.03 112.46,49.94C112.47,47.14 112.51,44.34 112.46,41.54C112.45,40.71 112.41,39.89 112.36,39.07C113.74,38.47 116.08,39.09 117.46,39.22C118.57,39.32 119.64,39.05 120.73,38.92C120.75,41.26 120.84,43.6 120.93,45.93C120.98,47.12 121.41,49.49 120.58,50.48C120.14,51 122.07,50.83 122.14,50.82C122.95,50.67 123.92,50.41 124.47,49.77C125.43,48.64 124.93,45.94 124.87,44.59C124.8,42.66 124.77,40.73 124.73,38.8C125.9,38.65 127.17,37.94 126.95,37.08"/>
			<path d="M48.77,25.17C49.29,25.12 49.82,24.94 50.26,24.64C50.34,24.57 50.43,24.5 50.52,24.42C51.04,24.09 51.49,23.59 51.25,23.05C50.74,21.94 50.82,20.8 50.83,19.61C50.84,18.64 49.86,18.35 49.03,18.42C48.3,18.48 46.84,19.01 46.84,19.95C46.83,20.96 46.77,21.99 46.95,22.97C46.9,23.09 46.87,23.22 46.84,23.33C46.79,23.55 46.86,23.76 46.99,23.93C46.99,23.97 46.99,24.02 46.99,24.06C46.99,24.18 47,24.29 47,24.4C47.08,24.64 47.22,24.81 47.44,24.94C47.83,25.17 48.32,25.21 48.77,25.17"/>
		</g>
	</symbol>
	<symbol id="logo-tablet" viewBox="0 0 112.38 46.08">
		<g>
			<path d="M110.22,41.88C114.62,42.74 111.07,6.02 110.37,3.56C108.41,-2.99 83.69,1.42 78.19,1.85C65.47,2.83 53,0.89 40.58,1.47C34.37,1.76 5.73,-0.33 3.06,3.46C-1.98,10.67 0.41,29.26 1.78,38.53C-2.25,39.31 4.09,42.69 4.92,43.43C11.23,45.62 21.28,43.21 27.93,43.83C43.36,45.3 59.72,41.63 75.2,42.87C79.7,44.02 84.81,43.89 89.43,44.11C92.84,49.68 109.09,41.65 110.22,41.88C110.12,41.86 110.73,41.98 110.22,41.88"/>
		</g>
		<g fill="#ffffff">
			<path d="M26.05,24.4C25.97,21.86 25.57,19.33 25.6,16.78C25.63,14.72 25.97,12.6 25.26,10.62C25.31,10.39 25.35,10.17 25.39,9.94C25.58,8.95 22.29,9.48 21.77,10.38C21.45,10.65 21.28,10.97 21.42,11.29C21.45,11.37 21.49,11.45 21.52,11.54C20.89,14.58 20.03,17.52 19.03,20.47C18.65,21.6 18.19,22.7 17.8,23.82C17.24,22.77 16.69,21.74 16.24,20.62C14.93,17.36 13.76,14.07 12.17,10.93C12.35,9.48 9.13,9.63 8.49,10.96C7.73,12.57 7.83,14.19 8.08,15.91C8.36,17.85 8.41,19.75 8.44,21.71C8.48,25.48 8.78,29.25 8.83,33.02C8.5,33.39 8.4,33.86 8.75,34.33C8.9,34.53 9.09,34.69 9.29,34.85C10.15,35.53 12.61,34.95 12.61,33.64C12.59,29.73 12.31,25.82 12.21,21.91C12.2,21.53 12.19,21.15 12.19,20.76C12.24,20.9 12.29,21.04 12.35,21.17C12.96,22.7 13.59,24.18 14.42,25.59C15.24,26.99 15.66,28.5 16.13,30.03C15.95,30.23 15.85,30.47 15.91,30.7C15.87,30.87 15.98,30.98 16.15,31.04C16.76,31.56 17.9,31.3 18.53,31.04C18.8,30.92 19.06,30.79 19.32,30.63C19.64,30.43 20.15,29.99 20.01,29.53C19.98,29.45 19.95,29.36 19.92,29.27C20.37,28.07 20.6,26.81 20.84,25.54C21.1,24.19 21.58,22.9 22.07,21.62C22.12,22.21 22.17,22.79 22.22,23.38C22.41,25.8 22.25,28.19 22.23,30.62C22.22,31.42 22.28,32.17 22.43,32.95C22.5,33.28 22.78,34.67 22.7,34.74C22.12,35.28 22.29,35.94 23.06,36.11C23.93,36.3 25.04,36.01 25.69,35.4C26.83,34.35 26.29,32.7 26.04,31.38C25.6,29.16 26.12,26.67 26.05,24.4"/>
			<path d="M33.99,25.05C33.92,23.16 33.27,21.38 33.26,19.47C33.25,17.29 33.43,15.12 33.11,12.94C33.01,12.25 29.26,13.03 29.39,13.94C29.69,15.94 29.58,17.95 29.54,19.97C29.51,21.91 29.99,23.66 30.24,25.57C30.49,27.52 30.16,29.51 30.38,31.47C30.48,32.38 31.09,34.07 30.46,34.86C30.06,35.37 31.86,35.19 31.94,35.17C32.67,35.04 33.64,34.8 34.12,34.19C34.74,33.4 34.31,31.89 34.17,31C33.87,29.05 34.06,27.02 33.99,25.05"/>
			<path d="M49.49,21.89C47.53,19.25 43.9,21.16 41.36,20.43C40.05,20.06 40.04,18.28 40.04,17.21C40.05,15.86 39.93,14.62 39.78,13.28C39.67,12.28 39.76,11.26 40.49,10.52C40.63,10.38 41.31,10.2 41.26,10.2C41.59,10.14 41.9,10.13 42.27,10.11C43.74,10.05 46.65,10.33 46.09,12.47C45.83,13.43 49.5,12.88 49.77,11.86C50.92,7.5 42.85,8.34 40.57,8.94C38.48,9.5 36.16,10.69 36.04,13.12C35.99,14.27 36.3,15.37 36.35,16.52C36.41,17.84 36.16,19.15 36.63,20.43C37.65,23.26 41.86,21.92 44.01,22.08C47.66,22.35 46.57,27.27 46.61,29.56C46.64,30.79 47.74,32.82 46.81,33.84C46.25,34.47 44.93,34.51 44.17,34.57C43.39,34.63 42.08,34.87 41.56,34.13C40.62,32.79 41.65,30.53 41.45,28.99C41.33,28.11 37.59,28.89 37.73,29.98C38.06,32.47 36.4,35.81 40.01,36.24C42.33,36.51 44.94,36.09 47.13,35.36C48.26,34.98 49.32,34.46 50.2,33.66C51.19,32.76 50.86,31.43 50.6,30.29C49.96,27.52 51.29,24.33 49.49,21.89"/>
			<path d="M65.93,21.72C65.81,18.13 65.28,14.59 65.26,11C65.25,9.13 61.5,9.76 61.51,11.32C61.52,14.75 61.98,18.12 62.15,21.54C62.16,21.61 62.16,21.68 62.16,21.75C60.31,21.73 58.46,21.92 56.61,21.98C56.8,17.58 56.03,13.22 56.2,8.83C56.22,8.28 52.52,8.74 52.48,9.83C52.32,14.07 53.04,18.29 52.91,22.53C52.85,24.56 52.68,26.58 52.66,28.61C52.66,29.65 52.83,30.68 52.98,31.71C53.11,32.65 53.44,33.92 53.15,34.86C52.93,35.59 56.53,35.13 56.81,34.2C57.33,32.51 56.6,30.36 56.43,28.66C56.26,27.02 56.39,25.34 56.51,23.67C58.43,23.55 60.36,23.39 62.28,23.66C62.36,24.97 62.46,26.28 62.58,27.59C62.68,28.69 62.75,29.78 62.77,30.89C62.79,31.85 62.91,33.25 62.56,34.17C61.83,36.12 65.55,35.96 66.09,34.51C66.76,32.74 66.57,30.53 66.46,28.67C66.31,26.34 66,24.04 65.93,21.72"/>
			<path d="M82,25.96C81.11,23.35 79.75,21.05 78.57,18.56C79.52,16.71 80.48,14.86 81.35,12.98C82.14,11.26 82.72,9.35 84.27,8.14C84.81,7.72 84.79,7.29 84.03,7.24C83.2,7.18 82.07,7.42 81.4,7.94C79.99,9.04 79.1,10.38 78.36,11.99C77.48,13.94 76.56,15.85 75.6,17.76C75.53,17.9 75.46,18.04 75.39,18.18C74.92,18.48 74.64,18.9 74.78,19.38C74.03,20.87 73.26,22.34 72.41,23.76C72.12,18.51 71.5,13.26 71.31,8C71.27,6.8 67.55,7.55 67.6,9C67.83,15.52 68.76,22.02 68.82,28.54C68.8,28.55 68.79,28.57 68.77,28.58C68.49,28.88 68.6,29.05 68.83,29.16C68.83,30.82 68.77,32.48 68.63,34.14C68.18,34.85 69.06,35.22 69.65,35.22L69.75,35.22C70.45,35.22 72.24,34.89 72.33,33.93C72.51,31.94 72.56,29.95 72.55,27.96C74.05,26.33 75.29,24.51 76.4,22.61C77.11,24.02 77.8,25.43 78.28,26.96C79.1,29.56 80.46,31.95 81.25,34.56C81.77,36.28 85.48,35.27 84.97,33.57C84.18,30.96 82.88,28.54 82,25.96"/>
			<path d="M90.43,21.42C90.33,20.24 90.22,19.06 90.14,17.87C89.99,15.66 90.25,12.57 92.31,11.23C92.87,10.87 93.9,10.93 94.55,10.81C95.47,10.65 96.41,10.44 97.23,10.99C98.38,11.75 98.1,14.46 98.1,15.61C98.09,17.52 98.29,19.41 98.39,21.31C97.87,21.36 97.34,21.39 96.79,21.38C94.62,21.33 92.48,20.99 90.43,21.42M104.3,21.56C104.1,20.77 103,20.76 102.15,20.83C102.13,20.52 102.13,20.2 102.11,19.88C101.99,17.35 101.95,14.77 101.74,12.26C101.54,9.92 100.24,9.09 97.97,9.18C95.68,9.26 93.01,9.68 90.87,10.51C88.4,11.47 87.02,13.29 86.54,15.9C86.02,18.76 86.77,21.8 86.9,24.67C87.04,28 86.96,31.33 86.96,34.65C86.96,35.2 90.67,34.68 90.67,33.66C90.68,31.02 90.71,28.39 90.67,25.76C90.66,24.98 90.62,24.21 90.58,23.44C91.88,22.88 94.08,23.45 95.37,23.57C96.42,23.67 97.43,23.42 98.45,23.3C98.47,25.49 98.55,27.7 98.64,29.89C98.69,31.01 99.09,33.24 98.3,34.17C97.89,34.66 99.71,34.49 99.78,34.48C100.53,34.34 101.45,34.1 101.96,33.49C102.87,32.43 102.4,29.9 102.35,28.63C102.27,26.81 102.25,25 102.21,23.19C103.31,23.04 104.51,22.37 104.3,21.56"/>
			<path d="M30.77,10.36C31.27,10.32 31.77,10.15 32.17,9.87C32.26,9.8 32.34,9.73 32.42,9.66C32.91,9.34 33.34,8.88 33.11,8.37C32.63,7.32 32.71,6.25 32.71,5.13C32.72,4.22 31.8,3.95 31.02,4.02C30.34,4.08 28.97,4.57 28.96,5.46C28.95,6.4 28.89,7.37 29.07,8.3C29.02,8.41 28.99,8.53 28.97,8.64C28.91,8.84 28.98,9.03 29.1,9.19C29.1,9.24 29.1,9.28 29.1,9.32C29.11,9.43 29.11,9.53 29.12,9.64C29.19,9.86 29.32,10.03 29.52,10.14C29.89,10.36 30.36,10.41 30.77,10.36"/>
		</g>
	</symbol>
	<symbol id="logo-mob" viewBox="0 0 85.58 35.03">
		<g>
			<path d="M4.18,26.3C4.16,22.82 3.91,19.36 3.82,15.89C3.81,15.55 3.8,15.21 3.8,14.87C3.85,14.99 3.9,15.11 3.95,15.23C4.49,16.58 5.05,17.89 5.78,19.15C6.52,20.39 6.88,21.73 7.3,23.09C7.15,23.27 7.05,23.48 7.11,23.69C7.07,23.84 7.17,23.93 7.32,23.99C7.86,24.45 8.87,24.22 9.43,23.98C9.68,23.88 9.91,23.76 10.13,23.63C10.42,23.45 10.87,23.06 10.74,22.65C10.72,22.57 10.69,22.49 10.67,22.42C11.07,21.35 11.27,20.24 11.48,19.11C11.71,17.9 12.14,16.76 12.58,15.62C12.62,16.14 12.66,16.67 12.7,17.19C12.88,19.34 12.73,21.46 12.71,23.61C12.7,24.32 12.76,24.99 12.9,25.69C12.95,25.97 13.21,27.21 13.13,27.27C12.62,27.75 12.77,28.33 13.46,28.48C14.23,28.65 15.21,28.4 15.79,27.86C16.8,26.93 16.32,25.46 16.09,24.29C15.71,22.32 16.17,20.11 16.11,18.1C16.04,15.84 15.68,13.6 15.71,11.33C15.74,9.5 16.04,7.62 15.41,5.86C15.45,5.66 15.49,5.46 15.53,5.26C15.69,4.38 12.77,4.85 12.31,5.65C12.02,5.89 11.88,6.17 12,6.46C12.03,6.53 12.06,6.6 12.08,6.68C11.53,9.37 10.76,11.99 9.88,14.61C9.54,15.61 9.13,16.58 8.78,17.58C8.29,16.65 7.8,15.73 7.4,14.74C6.24,11.85 5.2,8.92 3.79,6.14C3.95,4.85 1.09,4.99 0.53,6.17C-0.14,7.59 -0.05,9.03 0.16,10.56C0.41,12.28 0.46,13.97 0.48,15.71C0.52,19.05 0.78,22.4 0.83,25.75C0.53,26.08 0.44,26.49 0.75,26.9C0.89,27.09 1.06,27.23 1.23,27.36C1.99,27.98 4.18,27.46 4.18,26.3"/>
			<path d="M22.37,7.92C22.28,7.31 18.96,8.01 19.07,8.81C19.33,10.58 19.24,12.37 19.21,14.16C19.18,15.88 19.6,17.44 19.82,19.13C20.05,20.86 19.75,22.63 19.95,24.37C20.04,25.18 20.58,26.68 20.02,27.38C19.67,27.83 21.26,27.67 21.33,27.66C21.98,27.54 22.84,27.33 23.27,26.78C23.82,26.09 23.44,24.74 23.32,23.96C23.05,22.22 23.22,20.42 23.15,18.67C23.09,16.99 22.51,15.42 22.5,13.72C22.49,11.78 22.66,9.86 22.37,7.92"/>
			<path d="M25.49,14.57C26.4,17.08 30.14,15.9 32.05,16.04C35.28,16.28 34.32,20.65 34.36,22.68C34.38,23.77 35.35,25.57 34.54,26.48C34.04,27.03 32.87,27.07 32.19,27.13C31.5,27.18 30.33,27.39 29.87,26.74C29.04,25.54 29.95,23.54 29.77,22.17C29.67,21.39 26.35,22.09 26.47,23.05C26.76,25.26 25.3,28.23 28.5,28.61C30.56,28.85 32.87,28.47 34.81,27.82C35.82,27.49 36.76,27.03 37.55,26.31C38.42,25.52 38.13,24.34 37.9,23.33C37.33,20.87 38.51,18.04 36.91,15.87C35.17,13.53 31.95,15.22 29.7,14.58C28.54,14.25 28.52,12.67 28.53,11.72C28.53,10.51 28.43,9.41 28.3,8.22C28.2,7.34 28.28,6.44 28.92,5.78C29.04,5.66 29.65,5.49 29.6,5.49C29.9,5.44 30.18,5.43 30.51,5.42C31.81,5.36 34.39,5.61 33.89,7.51C33.67,8.36 36.92,7.87 37.16,6.97C38.18,3.1 31.02,3.84 29,4.38C27.13,4.87 25.08,5.93 24.97,8.08C24.92,9.11 25.2,10.09 25.25,11.1C25.3,12.27 25.08,13.44 25.49,14.57"/>
			<path d="M39.95,16.44C39.9,18.24 39.74,20.03 39.73,21.83C39.72,22.75 39.88,23.67 40.01,24.58C40.13,25.42 40.42,26.55 40.16,27.38C39.96,28.02 43.16,27.62 43.41,26.79C43.87,25.29 43.23,23.39 43.07,21.87C42.93,20.42 43.04,18.93 43.15,17.45C44.85,17.34 46.56,17.2 48.26,17.44C48.34,18.61 48.43,19.76 48.54,20.93C48.63,21.9 48.69,22.87 48.7,23.85C48.72,24.71 48.82,25.95 48.52,26.77C47.87,28.5 51.17,28.36 51.65,27.08C52.24,25.5 52.08,23.54 51.98,21.88C51.85,19.82 51.57,17.77 51.51,15.71C51.4,12.53 50.93,9.39 50.91,6.2C50.91,4.54 47.57,5.1 47.58,6.49C47.59,9.53 48,12.52 48.15,15.56C48.16,15.62 48.16,15.68 48.16,15.74C46.52,15.72 44.88,15.89 43.23,15.95C43.4,12.04 42.72,8.18 42.87,4.28C42.89,3.78 39.61,4.2 39.57,5.16C39.42,8.93 40.06,12.67 39.95,16.44"/>
			<path d="M54.03,21.81C53.78,22.07 53.87,22.22 54.07,22.32C54.08,23.79 54.02,25.27 53.9,26.74C53.5,27.37 54.29,27.7 54.81,27.7L54.89,27.7C55.51,27.7 57.1,27.41 57.18,26.55C57.34,24.78 57.39,23.02 57.38,21.25C58.71,19.81 59.81,18.2 60.79,16.5C61.43,17.75 62.04,19.01 62.47,20.37C63.19,22.68 64.41,24.8 65.1,27.12C65.56,28.64 68.86,27.74 68.4,26.23C67.7,23.91 66.55,21.77 65.76,19.48C64.97,17.16 63.77,15.12 62.72,12.91C63.56,11.27 64.42,9.63 65.19,7.95C65.89,6.43 66.41,4.74 67.78,3.66C68.27,3.29 68.25,2.91 67.57,2.86C66.83,2.81 65.83,3.02 65.23,3.49C63.98,4.46 63.19,5.65 62.54,7.08C61.75,8.81 60.94,10.5 60.08,12.2C60.02,12.32 59.96,12.45 59.9,12.57C59.48,12.84 59.24,13.21 59.36,13.64C58.69,14.95 58.01,16.26 57.25,17.52C57,12.86 56.45,8.21 56.28,3.54C56.25,2.47 52.94,3.14 52.99,4.42C53.19,10.21 54.01,15.98 54.07,21.76C54.06,21.78 54.04,21.8 54.03,21.81"/>
			<path d="M78.9,15.42C76.97,15.37 75.07,15.07 73.25,15.45C73.16,14.4 73.07,13.35 73,12.3C72.86,10.34 73.09,7.6 74.92,6.4C75.42,6.08 76.34,6.14 76.91,6.03C77.73,5.89 78.55,5.71 79.29,6.19C80.31,6.87 80.06,9.27 80.06,10.3C80.05,11.99 80.23,13.67 80.32,15.35C79.85,15.4 79.38,15.43 78.9,15.42M85.56,15.58C85.39,14.88 84.41,14.86 83.65,14.93C83.64,14.65 83.63,14.36 83.62,14.08C83.51,11.84 83.48,9.55 83.29,7.32C83.12,5.25 81.96,4.51 79.95,4.58C77.91,4.66 75.54,5.03 73.64,5.77C71.45,6.62 70.22,8.24 69.8,10.55C69.34,13.09 70,15.79 70.12,18.34C70.25,21.29 70.17,24.25 70.17,27.2C70.17,27.68 73.47,27.23 73.47,26.31C73.47,23.98 73.5,21.64 73.47,19.3C73.46,18.61 73.42,17.93 73.38,17.24C74.54,16.74 76.49,17.25 77.64,17.36C78.57,17.45 79.46,17.22 80.37,17.12C80.39,19.06 80.46,21.02 80.54,22.97C80.58,23.97 80.94,25.94 80.24,26.77C79.87,27.2 81.49,27.06 81.55,27.05C82.22,26.92 83.03,26.71 83.49,26.17C84.29,25.23 83.88,22.98 83.83,21.85C83.76,20.24 83.74,18.63 83.71,17.02C84.68,16.89 85.75,16.29 85.56,15.58"/>
			<path d="M18.7,4.1C18.65,4.28 18.71,4.46 18.81,4.6C18.81,4.64 18.82,4.67 18.82,4.71C18.82,4.81 18.83,4.9 18.83,4.99C18.89,5.19 19.01,5.34 19.19,5.44C19.52,5.64 19.93,5.67 20.3,5.64C20.74,5.6 21.18,5.45 21.55,5.2C21.62,5.14 21.69,5.08 21.76,5.01C22.2,4.73 22.58,4.32 22.37,3.87C21.95,2.94 22.01,1.99 22.02,0.99C22.03,0.19 21.21,-0.05 20.52,0C19.91,0.06 18.7,0.49 18.69,1.28C18.68,2.12 18.63,2.98 18.78,3.81C18.74,3.9 18.72,4 18.7,4.1"/>
			<path d="M80.27,33.28C78.71,32.7 76.99,32.67 75.42,32.5C73.82,32.33 72.18,32.09 70.54,31.93C68.9,31.99 67.23,31.96 65.57,32.06L60.69,32.33C54.2,32.62 47.69,32.58 41.17,32.44C34.65,32.32 28.13,31.96 21.54,31.99C18.25,31.99 14.97,32.08 11.68,32.24C10.05,32.52 8.44,32.74 6.77,33.15C5.16,33.55 3.63,34.06 1.98,34.2C3.6,34.56 5.32,34.49 6.94,34.49C8.52,34.5 10.18,34.64 11.81,34.72C15.04,34.55 18.3,34.48 21.55,34.47C28.03,34.44 34.56,34.8 41.11,34.92C47.66,35.06 54.23,35.1 60.79,34.81L65.7,34.54C67.3,34.47 68.9,34.41 70.53,34.47C72.16,34.32 73.78,34.14 75.45,33.94C77.11,33.7 78.67,33.31 80.3,33.43L80.38,33.44L80.38,33.38C80.41,33.2 80.34,33.06 80.34,32.9C80.31,33.03 80.3,33.17 80.27,33.28"/>
		</g>
	</symbol>
</svg>