<svg xmlns="http://www.w3.org/2000/svg" width="100.67" height="76.89" viewBox="0 0 100.67 76.89">
	<style type="text/css">
		.st1{fill:#ffffff;}
		.st0{fill:#63d1bb;}
	</style>
	<path class="st0" d="M96.95,18.14C96.95,18.14 96.03,11.14 93.17,8.07C89.53,4.03 85.49,4 83.63,3.77C70.3,2.75 50.32,2.75 50.32,2.75L50.27,2.75C50.27,2.75 30.29,2.75 16.97,3.77C15.1,4 11.06,4.03 7.43,8.07C4.59,11.16 3.64,18.14 3.64,18.14C3.64,18.14 2.75,26.36 2.75,34.57L2.75,42.27C2.75,50.48 3.69,58.69 3.69,58.69C3.69,58.69 4.61,65.7 7.48,68.76C11.11,72.81 15.84,72.68 17.96,73.11C25.59,73.88 50.32,74.14 50.32,74.14C50.32,74.14 70.32,74.11 83.65,73.09C85.52,72.86 89.56,72.83 93.19,68.79C96.03,65.72 96.97,58.71 96.97,58.71C96.97,58.71 97.92,50.5 97.92,42.29L97.92,34.59C97.9,26.36 96.95,18.14 96.95,18.14"/>
	<path class="st1" d="M18.37,70.39C25.84,71.12 49.58,71.38 50.33,71.39C50.99,71.38 70.47,71.34 83.38,70.35C83.56,70.33 83.75,70.31 83.96,70.29C85.8,70.1 88.57,69.82 91.15,66.95L91.17,66.92C93,64.95 94.03,59.99 94.25,58.37C94.31,57.86 95.17,50.01 95.17,42.29L95.17,34.59C95.15,26.83 94.28,18.97 94.22,18.48C93.9,16.1 92.79,11.69 91.16,9.94L91.12,9.91C88.55,7.04 85.77,6.76 83.94,6.57C83.73,6.55 83.53,6.53 83.36,6.51C70.29,5.51 50.52,5.5 50.32,5.5L50.27,5.5C50.07,5.5 30.3,5.51 17.24,6.51C17.06,6.53 16.87,6.55 16.66,6.57C14.82,6.76 12.05,7.04 9.47,9.91L9.45,9.93C7.63,11.92 6.6,16.85 6.37,18.48C6.31,19.07 5.5,26.88 5.5,34.57L5.5,42.27C5.5,50.02 6.37,57.87 6.42,58.35C6.74,60.73 7.86,65.14 9.49,66.89L9.52,66.93C11.85,69.51 14.83,69.9 17,70.19C17.48,70.25 17.94,70.31 18.37,70.39M50.31,76.89L50.29,76.89C49.28,76.87 25.35,76.62 17.69,75.85L17.55,75.83L17.41,75.81C17.14,75.75 16.75,75.7 16.29,75.64C13.78,75.31 9.13,74.7 5.45,70.62C2.09,67 1.07,59.85 0.97,59.04L0.96,59C0.92,58.66 0,50.54 0,42.27L0,34.57C0,26.3 0.87,18.19 0.91,17.85L0.92,17.78C1.02,16.97 2.07,9.85 5.39,6.22C9.39,1.78 13.92,1.32 16.1,1.1C16.29,1.08 16.47,1.06 16.63,1.04L16.76,1.03C30.03,0.01 50.07,0 50.27,0L50.32,0C50.52,0 70.56,0.01 83.84,1.03L83.96,1.04C84.12,1.06 84.3,1.08 84.49,1.1C86.67,1.32 91.2,1.78 95.19,6.21C98.55,9.83 99.57,16.98 99.68,17.79L99.68,17.83C99.72,18.17 100.65,26.29 100.67,34.58L100.67,42.29C100.67,50.56 99.75,58.69 99.71,59.03L99.7,59.08C99.59,59.88 98.55,67.03 95.22,70.64C91.23,75.08 86.7,75.54 84.52,75.76C84.32,75.78 84.14,75.8 83.99,75.82L83.86,75.83C70.58,76.85 50.53,76.89 50.33,76.89Z"/>
	<path class="st1" d="M38.43,20.57L38.43,56.28L68.18,38.43Z"/>
</svg>