<svg  xmlns="http://www.w3.org/2000/svg">

	<symbol id="lamp" viewBox="0 0 40.21 62.41" fill="#149080" opacity="0.5">
		<g>
			<path d="M15.17,37.95C14.89,38.92 14.93,40.14 15.2,41.59C15.69,44.23 16.89,47.63 17.56,51.26L22.62,51.26C23.32,47.62 24.57,44.21 25.09,41.58C25.38,40.13 25.42,38.92 25.13,37.96C24.86,37.06 24.24,36.34 23.11,35.66L17.11,35.66C16.04,36.34 15.44,37.05 15.17,37.95"/>
			<path d="M27,57.95L13.21,57.95C11.91,57.95 10.91,58.92 10.91,60.18L10.91,62.41L13.21,62.41L27,62.41L29.3,62.41L29.3,60.18C29.3,58.92 28.3,57.95 27,57.95"/>
			<path d="M34.14,2.22L22.41,2.22C22.41,0.98 21.39,0 20.1,0C18.82,0 17.8,0.98 17.8,2.22L6.07,2.22L0,27.74C0.79,27.28 1.58,26.75 2.63,26.75C3.99,26.75 4.87,27.57 5.55,28.12C6.23,28.68 6.71,28.97 7,28.97C7.29,28.97 7.77,28.69 8.45,28.14C9.13,27.59 10.01,26.78 11.36,26.78C12.71,26.78 13.6,27.58 14.28,28.13C14.97,28.68 15.44,28.97 15.73,28.97C15.88,28.97 16.07,28.9 16.31,28.76C16.56,28.62 16.84,28.41 17.19,28.13C17.7,27.72 18.32,27.16 19.18,26.91C19.46,26.83 19.77,26.78 20.1,26.78C21.45,26.78 22.34,27.58 23.02,28.13C23.71,28.68 24.18,28.97 24.48,28.97C24.76,28.97 25.24,28.68 25.92,28.12C26.61,27.57 27.49,26.76 28.85,26.76C30.2,26.76 31.09,27.57 31.77,28.13C32.11,28.4 32.4,28.62 32.64,28.76C32.88,28.9 33.07,28.97 33.21,28.97C33.5,28.97 33.97,28.68 34.65,28.12C35.33,27.56 36.22,26.73 37.58,26.73C38.63,26.73 39.42,27.27 40.21,27.73Z"/>
			<path d="M23.52,53.49L16.65,53.49C16,53.49 15.5,53.97 15.5,54.61C15.5,55.24 16,55.72 16.65,55.72L23.55,55.72C24.21,55.72 24.7,55.24 24.7,54.61C24.7,53.97 24.21,53.49 23.55,53.49Z"/>
			<path d="M20.1,29.01C19.96,29.01 19.77,29.08 19.52,29.22C19.37,29.31 19.15,29.48 18.96,29.63L18.96,33.36L21.25,33.36L21.25,29.63C20.75,29.25 20.35,29.01 20.1,29.01"/>
		</g>
	</symbol>

	<symbol id="lego" viewBox="0 0 59.99 59.61" fill="#149080" opacity="0.5">
		<g>
			<path d="M29.91,6.57C34.18,6.57 37.63,5.1 37.63,3.28C37.63,1.47 34.18,0 29.91,0C25.64,0 22.18,1.47 22.18,3.28C22.18,5.1 25.64,6.57 29.91,6.57M32.55,36.47L32.55,59.61L59.99,43.68L59.99,20.53ZM37.7,22.6C37.7,24.42 34.24,25.89 29.97,25.89C25.7,25.89 22.24,24.42 22.24,22.6L22.24,18.54L22.27,18.54C22.53,20.25 25.87,21.62 29.97,21.62C34.07,21.62 37.41,20.25 37.68,18.54L37.7,18.54ZM51.34,12.43L51.34,14.89C51.34,16.7 47.88,18.17 43.61,18.17C39.34,18.17 35.88,16.7 35.88,14.89L35.88,10.83L35.91,10.83C36.17,12.54 39.51,13.9 43.61,13.9C47.88,13.9 51.34,12.43 51.34,10.61C51.34,8.8 47.88,7.33 43.61,7.33C43.27,7.33 42.94,7.34 42.61,7.36L37.63,4.47L37.63,7.55C37.63,9.37 34.18,10.84 29.91,10.84C27.23,10.84 24.87,10.26 23.48,9.38C23.28,9.17 23.04,8.98 22.75,8.79C22.38,8.41 22.18,7.99 22.18,7.55L22.18,4.57L17.37,7.36C17.03,7.34 16.68,7.33 16.32,7.33C12.05,7.33 8.59,8.8 8.59,10.61C8.59,12.43 12.05,13.9 16.32,13.9C20.42,13.9 23.77,12.54 24.02,10.83L24.05,10.83L24.05,14.89C24.05,16.7 20.59,18.17 16.32,18.17C12.05,18.17 8.59,16.7 8.59,14.89L8.59,12.46L2.64,15.92L30.17,31.9L57.52,16.02ZM0,43.68L27.43,59.61L27.43,36.26L0,20.32Z"/>	
		</g>
	</symbol>

	<symbol id="basket" viewBox="0 0 20.29 18.84">
		<g>
			<path d="M17.01,11.56L3.27,11.56L2.46,8.72L17.82,8.72ZM15.36,17.34L4.93,17.34L3.7,13.06L16.58,13.06ZM19.54,7.22L16.39,7.22L12.98,0.41C12.8,0.04 12.35,-0.1 11.97,0.07C11.6,0.26 11.45,0.71 11.64,1.08L14.71,7.22L5.57,7.22L8.64,1.08C8.83,0.71 8.68,0.26 8.31,0.07C7.94,-0.1 7.49,0.04 7.3,0.41L3.9,7.22L0.74,7.22C0.33,7.22 0,7.56 0,7.97C0,8.39 0.33,8.72 0.74,8.72L0.9,8.72L1.76,11.71C1.57,11.85 1.44,12.06 1.44,12.31C1.44,12.71 1.75,13.02 2.14,13.05L3.79,18.84L16.49,18.84L18.15,13.05C18.53,13.02 18.84,12.71 18.84,12.31C18.84,12.06 18.71,11.85 18.53,11.71L19.38,8.72L19.54,8.72C19.95,8.72 20.29,8.39 20.29,7.97C20.29,7.56 19.95,7.22 19.54,7.22"/>
		</g>
	</symbol>

	<symbol id="lupa" viewBox="0 0 17.59 17.59">
		<g>
			<path d="M2.19,7.69C2.19,4.66 4.66,2.19 7.69,2.19C10.73,2.19 13.19,4.66 13.19,7.69C13.19,10.73 10.73,13.19 7.69,13.19C4.66,13.19 2.19,10.73 2.19,7.69M17.26,15.72L13.85,12.31C14.81,11.02 15.39,9.43 15.39,7.69C15.39,3.44 11.95,0 7.69,0C3.44,0 0,3.44 0,7.69C0,11.95 3.44,15.39 7.69,15.39C9.43,15.39 11.02,14.81 12.31,13.85L15.72,17.26C15.93,17.47 16.14,17.59 16.5,17.59C17.1,17.59 17.59,17.1 17.59,16.49C17.59,16.25 17.53,16 17.26,15.72"/>
		</g>
	</symbol>

	<symbol id="instg" viewBox="0 0 21.76 21.33">
		<g>
			<path d="M13.18,7.66C13.39,7.78 13.62,7.88 13.79,8.04C13.87,8.26 14.03,8.41 14.17,8.57C14.23,9.35 14.35,10.06 14.32,10.93C14.06,11.02 13.88,11.2 13.64,11.31C12.86,11.3 12.28,11.1 11.74,10.85C11.57,10.59 11.38,10.35 11.21,10.09L11.21,9.03C11.38,8.84 11.53,8.64 11.66,8.42C11.89,8.3 12.17,8.22 12.12,7.81C12.08,7.75 12.04,7.69 12.04,7.59C12.2,7.63 12.29,7.75 12.42,7.81C12.74,7.83 12.83,7.61 13.18,7.66M14.32,11.46C14.09,11.4 14.18,11.67 13.94,11.61C14.01,11.45 14.06,11.27 14.17,11.15C14.3,11.17 14.34,11.28 14.32,11.46M12.12,14.04C12.15,13.93 12.19,14.05 12.27,14.04C12.25,14.14 12.12,14.11 12.12,14.04M11.36,11.15C11.32,11.12 11.41,11.06 11.44,11.08C11.48,11.12 11.38,11.18 11.36,11.15M10.98,7.21C10.78,7.46 11.02,7.78 11.06,8.04C10.75,8 10.48,7.15 10.98,7.21M9.31,9.33C9.33,9.25 9.39,9.29 9.39,9.33C9.37,9.42 9.31,9.38 9.31,9.33M8.85,11.38C8.9,11.27 8.93,11.38 8.93,11.46C8.89,11.57 8.85,11.46 8.85,11.38M8.78,11.08C8.67,11.01 8.67,10.83 8.63,10.7C8.88,10.62 8.74,10.93 8.78,11.08M12.19,6.75C11.97,6.52 11.52,6.52 11.21,6.37C10.51,6.33 9.99,6.46 9.46,6.6C9.16,6.75 8.85,6.9 8.55,7.05C8.29,7.22 8.11,7.47 7.79,7.59C7.59,7.81 7.44,8.1 7.11,8.19C7.1,8.42 6.94,8.47 6.8,8.57C6.72,8.69 6.71,8.88 6.58,8.95C6.57,9.07 6.61,9.24 6.5,9.26C6.61,10.77 6.79,12.2 7.18,13.43C7.47,14.06 8.16,14.28 8.63,14.72C9.22,15.02 9.95,15.17 10.75,15.25C11.03,15.2 11.31,15.15 11.66,15.18C12.87,14.97 13.76,14.44 14.47,13.74C14.57,13.46 14.73,13.23 14.93,13.05C14.67,12.38 15.22,11.96 15.38,11.46C15.39,10.11 15.18,8.98 14.78,8.04C14.52,7.46 13.86,7.29 13.41,6.9C13.35,6.89 13.26,6.9 13.26,6.83C12.99,6.7 12.53,6.59 12.19,6.75M13.33,4.93C13.22,4.98 13.34,5.02 13.33,4.93M10.52,4.32C10.55,4.34 10.64,4.28 10.6,4.25C10.58,4.22 10.49,4.28 10.52,4.32M11.06,3.94C10.74,3.87 11.04,4.17 11.06,3.94M13.33,4.93C13.87,4.88 14.08,4.51 14.55,4.4C14.83,4.1 15.33,4.02 15.54,3.64C14.98,3.66 14.77,4.04 14.32,4.17C14.04,4.47 13.57,4.58 13.33,4.93M11.06,3.94C11.4,3.81 11.67,3.59 11.89,3.33C11.54,3.47 11.28,3.68 11.06,3.94M11.89,3.33C11.96,3.35 11.96,3.3 11.97,3.26C11.9,3.25 11.9,3.29 11.89,3.33M11.97,3.26C12.03,3.27 12.04,3.23 12.04,3.18C11.98,3.17 11.97,3.21 11.97,3.26M12.04,3.18C12.15,3.14 12.04,3.09 12.04,3.18M12.73,2.57C12.62,2.62 12.73,2.67 12.73,2.57M13.41,3.41C14.14,3.25 14.59,2.82 15.16,2.5C14.72,2.52 14.56,2.82 14.17,2.88C13.95,3.09 13.57,3.14 13.41,3.41M15.16,2.5C15.27,2.45 15.15,2.41 15.16,2.5M14.09,1.89C13.56,2.05 13.08,2.24 12.73,2.57C13.21,2.38 13.79,2.27 14.09,1.89M14.09,1.89C14.2,1.84 14.08,1.8 14.09,1.89M19.94,5.61C19.3,5.49 18.71,5.33 18.04,5.23C18.11,4.9 18.84,5.22 19.03,5.01C19.41,4.78 19.32,4.09 19.33,3.49C19.36,3.14 19.45,2.84 19.41,2.42C19.01,1.47 17.62,2 16.52,1.97C16.3,2.69 16.05,3.77 16.22,4.63C16.39,5.11 17.24,4.92 17.74,5.08C17.6,5.41 17.05,5.14 16.75,5.16C16.45,5.07 16.04,5.1 15.76,5.01C13.48,5.08 11.48,5.01 9.23,5.16C9.35,3.91 9.3,2.69 9.16,1.51L12.27,1.51C11.93,1.88 11.36,2.02 10.98,2.35C10.54,2.59 10.12,2.85 9.84,3.26C10.09,3.39 10.38,3.01 10.6,2.88C10.96,2.81 11.08,2.5 11.44,2.42C11.86,1.99 12.53,1.8 13.11,1.51C13.48,1.49 13.8,1.53 14.09,1.59C15.38,1.6 16.55,1.72 17.89,1.66C18.5,1.81 19.34,1.73 19.86,1.97C19.97,2.27 20.09,2.55 20.17,2.88C20.18,3.88 20.02,4.71 19.94,5.61M19.56,16.77C19.45,17.73 19.4,18.74 19.18,19.58C16.29,19.7 13.16,19.59 10.3,19.73C10.1,19.78 10.02,19.7 10.07,19.51C9.82,19.51 9.81,19.75 9.54,19.73C9.74,19.4 9.98,18.84 9.69,18.44C8.89,18.46 8.89,19.27 8.55,19.73C7.87,19.68 7.41,19.86 6.73,19.81C6.91,19.1 7.48,18.79 7.64,18.06C7.24,17.52 6.65,18.2 6.43,18.52C6.22,19 5.87,19.33 5.67,19.81L4.68,19.81C4.92,19.34 5.17,18.88 5.44,18.44C5.61,17.93 6.06,17.7 6.12,17.08C5.96,16.8 5.7,17.05 5.44,17.08C5.32,17.26 5.17,17.41 5.06,17.61C4.83,17.98 4.56,18.32 4.37,18.75C4.19,18.95 4.04,18.75 3.84,18.97C3.46,19.25 3.26,19.71 2.86,19.96C2.68,19.9 2.9,19.6 3.01,19.58C3.06,19.4 2.91,19.03 3.08,18.97C3.15,18.61 3.3,18.33 3.46,18.06C3.58,17.32 3.99,16.86 4.15,16.17C3.59,16.26 3.47,16.81 3.16,17.15C2.95,17.6 2.62,17.93 2.48,18.44C2.3,18.31 2.45,17.86 2.4,17.61C2.52,17.02 2.7,16.49 2.78,15.86C2.91,15.64 2.95,15.33 3.01,15.03C3.18,14.82 3.06,14.42 2.93,14.27C2.71,14.29 2.56,14.4 2.48,14.57C2.29,14.54 2.28,15.08 2.17,14.87C2.13,12.29 1.72,10.06 1.72,7.43C1.74,7.1 1.54,7.01 1.49,6.75C3.12,6.78 4.61,6.84 6.27,6.98C6.18,7.12 6.07,7.24 5.97,7.36C5.83,7.43 5.74,7.53 5.59,7.66C4.99,9.31 4.62,11.65 4.98,13.81C5.21,14.39 5.57,14.84 5.97,15.25C6.88,15.74 7.6,16.4 8.48,16.93C10.18,17.29 12.32,17.29 14.02,16.93C14.25,16.8 14.5,16.7 14.7,16.54C16.07,15.3 17.45,14.09 17.66,11.68L17.66,10.32C17.46,8.72 16.97,7.41 15.91,6.67C16.25,6.46 17.01,6.72 17.58,6.75C17.81,6.76 18.03,6.76 18.27,6.75C18.68,6.73 19.2,6.7 19.71,6.75C19.86,6.94 19.83,7.29 19.94,7.51C19.88,9.19 19.75,10.81 19.79,12.6C19.89,13.05 19.91,13.58 20.02,14.04C19.93,15.01 19.78,15.93 19.56,16.77M1.34,5.69L1.34,4.09C1.53,3.91 1.73,3.73 1.95,3.56C2.24,4.05 2.12,4.95 2.4,5.46C2.13,5.62 1.65,5.57 1.34,5.69M1.26,2.42C1.49,2.22 1.71,2.01 1.95,1.82C1.92,1.69 2.02,1.68 2.02,1.59L2.25,1.59C2.35,1.97 1.99,1.88 1.95,2.12C1.97,2.24 1.87,2.25 1.87,2.35C1.89,2.68 1.99,2.93 1.95,3.33C1.68,3.34 1.67,3.61 1.34,3.56C1.36,3.13 1.2,2.89 1.26,2.42M1.72,1.66C1.68,1.88 1.39,1.84 1.34,2.04C1.12,1.87 1.42,1.58 1.72,1.66M2.7,1.59C2.73,1.85 2.27,1.91 2.33,1.59ZM3.39,5.31C3.54,5.28 3.5,5.65 3.31,5.54C3.35,5.47 3.39,5.41 3.39,5.31M3.62,1.59C3.65,1.75 3.56,1.79 3.54,1.89C3.37,1.92 3.46,1.67 3.31,1.66C3.34,1.56 3.5,1.6 3.62,1.59M3.62,2.73C3.35,2.78 3.34,2.46 3.46,2.35C3.73,2.29 3.74,2.61 3.62,2.73M3.39,4.78C3.47,4.47 3.42,4.47 3.46,4.09C3.69,4.11 3.72,4.86 3.39,4.78M3.54,3.79C3.34,3.81 3.32,3.26 3.46,3.18C3.79,3.19 3.71,3.68 3.54,3.79M4.07,3.79C4.08,3.68 4.08,3.58 4,3.56C3.92,2.83 4.13,2.15 4,1.59C4.25,1.43 4.76,1.55 5.13,1.51L5.13,2.65C5.05,2.71 4.93,2.75 4.76,2.73C4.7,3.01 5.08,2.86 5.13,3.03C5.14,3.88 5.08,4.81 5.29,5.46C4.72,5.4 4.38,5.57 3.84,5.54C3.94,4.92 3.83,4.1 4.38,3.94C4.36,3.8 4.12,3.89 4.07,3.79M6.43,5.01C6.6,4.98 6.51,5.22 6.65,5.23C6.64,5.43 6.37,5.41 6.27,5.31C6.31,5.2 6.39,5.12 6.43,5.01M6.58,4.78C6.52,4.92 6.5,4.73 6.5,4.63C6.56,4.49 6.58,4.67 6.58,4.78M6.58,3.41C6.45,3.34 6.41,3.17 6.43,2.96C6.56,3.02 6.59,3.19 6.58,3.41M6.43,1.59C6.51,1.58 6.56,1.6 6.58,1.66C6.76,1.92 6.59,2.35 6.5,2.58C6.33,2.4 6.47,1.89 6.43,1.59M7.11,3.18C6.99,2.92 7.04,2.49 7.03,2.12C7.03,1.84 7.31,1.84 7.34,1.59C7.33,1.51 7.24,1.53 7.18,1.51C7.31,1.37 7.89,1.42 8.02,1.51C8.15,2.05 7.66,1.97 7.49,2.2C7.5,2.36 7.81,2.23 7.94,2.27C7.97,3.13 7.89,3.77 7.94,4.47L7.49,4.47C7.48,4.71 7.72,4.7 7.94,4.7C7.89,4.99 8.04,5.06 8.02,5.31C7.79,5.46 7.3,5.35 6.96,5.38C6.85,4.79 7.19,4.01 7.11,3.18M8.78,5.92C9.54,5.76 10.26,5.57 11.21,5.61C11.92,5.69 12.49,5.89 13.11,6.07C13.22,6.25 12.86,6.61 13.26,6.75L13.26,6.83C13.32,6.84 13.41,6.83 13.41,6.9C13.86,6.94 14.2,7.07 14.47,7.28C14.92,7.34 15.01,7.76 15.61,7.66C15.52,7.87 15.53,8.19 15.54,8.5C15.86,9.68 16.01,11.31 15.84,12.75C15.67,12.91 15.62,13.19 15.54,13.43C15.23,13.75 15.05,14.22 14.7,14.49C14.61,14.73 14.45,14.9 14.25,15.03C14.13,15.24 14.04,15.48 13.79,15.56C13.49,15.72 13.21,15.57 12.95,15.48C12.51,15.64 12.05,15.79 11.74,16.09C10.92,15.99 10.09,15.91 9.31,15.78C9.07,15.65 8.82,15.51 8.48,15.48C8.25,15.28 7.98,15.12 7.64,15.02C7.54,14.9 7.3,14.91 7.18,14.8C6.99,14.77 6.96,14.57 6.73,14.57C6.61,14.16 6.29,13.95 6.2,13.51C5.97,13.18 5.89,12.7 5.74,12.29C5.7,10.86 5.83,9.6 6.12,8.5C6.47,7.9 6.9,7.4 7.26,6.83C7.51,6.85 7.62,6.74 7.64,6.52C7.95,6.57 8.07,6.45 8.32,6.45C8.58,6.37 8.59,6.06 8.78,5.92M21.76,12.14C21.75,9.75 21.42,7.35 21.46,5.01C21.43,4.22 21.37,3.47 21.31,2.73C21.2,2.43 21.19,2.03 21.15,1.66C20.89,1.5 20.93,1.02 20.7,0.83C20.27,0.6 19.5,0.72 18.95,0.6C18.3,0.58 17.7,0.49 17.05,0.45C15.12,0.35 13.08,0.37 11.06,0.37C9.06,0.37 7.1,0.23 5.36,0L3.16,0C3.06,0 3.06,0.09 2.93,0.07C2.33,0.1 1.86,0.26 1.34,0.37C1.13,0.49 0.92,0.61 0.66,0.68C0.52,0.87 0.14,0.82 0.05,1.06C-0.13,1.27 0.23,1.51 0.05,1.66L0.05,2.58C0.22,2.71 0.08,3.16 0.12,3.41L0.12,4.4C0.11,5.68 0.26,6.8 0.2,8.12C0.67,10.88 0.57,14.65 0.28,17.53C0.43,18.11 0.64,18.64 0.73,19.28C0.99,19.76 1.07,20.41 1.41,20.8C1.92,21 2.65,20.98 3.31,21.02C3.7,21.12 3.98,21.32 4.45,21.33C7.3,21.12 9.95,21.18 12.88,21.1C15.58,21.34 18.68,21.29 21.15,20.87C21.35,20.74 21.28,20.34 21.38,20.11C21.33,19.73 21.59,19.66 21.61,19.35C21.74,16.96 21.77,14.57 21.76,12.14"/>
		</g>
	</symbol>

	<symbol id="faceb" viewBox="0 0 14.96 27.71">
		<g>
			<path d="M7.84,9.97C7.96,10.22 8.09,10.46 8.25,10.67C8.33,10.69 8.46,10.67 8.46,10.77C9.65,10.82 10.66,10.7 11.55,10.47C11.55,11.47 11.28,12.2 11.04,12.96C10.37,13.01 9.57,13.26 9.08,13.16C8.8,13.32 8.71,13.67 8.46,13.86C8.41,14.3 8.6,14.35 8.46,14.65C8.26,14.79 8.4,15.27 8.25,15.45L8.25,16.95C8.34,17.23 8.11,17.2 8.15,17.44L8.15,20.93C8.07,21.21 8.3,21.19 8.25,21.43L8.25,24.42C8.32,24.69 8.12,25.21 8.36,25.32C8.29,25.68 7.94,25.3 7.53,25.42C7,25.54 6.61,25.78 5.98,25.82C6.1,25.46 6.3,25.19 6.29,24.72C6.34,24.34 5.93,24.41 5.78,24.22C5.97,23.58 6.34,23.1 6.5,22.43C6.7,21.91 7.21,21.13 6.81,20.63C6.29,20.53 6.29,20.93 5.98,21.03C5.96,21.11 5.98,21.23 5.88,21.23C5.86,21.31 5.88,21.43 5.78,21.43C5.79,21.55 5.63,21.49 5.78,21.43C5.8,21.35 5.78,21.23 5.88,21.23C5.9,21.15 5.88,21.03 5.98,21.03L5.98,20.73C6.35,20.16 6.65,19.52 6.81,18.74C7,18.46 7.09,18.08 7.22,17.74C7.38,17.48 7.56,16.87 7.33,16.55C6.81,16.58 6.53,16.84 6.4,17.25C6.08,17.06 6.56,16.81 6.5,16.55C6.64,16.32 6.67,15.98 6.81,15.75C7.01,15.34 7.37,14.45 6.81,14.16C6.37,14.13 6.2,14.36 6.09,14.65C5.87,14.85 5.66,15.04 5.57,15.35C5.2,15.28 5.43,14.63 5.37,14.26C5.3,13.74 5.49,13.36 5.37,13.06C4.81,12.26 3.34,12.95 2.17,12.76C2.06,12.45 1.95,11.78 2.07,11.57C3.11,11.48 4.54,11.77 5.26,11.37C5.29,11.29 5.27,11.17 5.37,11.17C5.46,10.44 5.09,10.17 4.85,9.77C5.08,8.97 4.89,7.75 4.95,6.78C5.19,6.64 5.28,6.37 5.47,6.18C5.58,5.23 6.14,4.71 6.19,3.69C5.92,3.69 5.58,3.64 5.57,3.89C5.27,3.78 5.19,4.37 5.06,4.09C4.94,3.55 5.3,3.47 5.37,3.09C5.96,2.68 6.58,2.27 7.22,1.9C8.96,1.65 11.87,1.45 13.31,2.1C13.36,2.71 13.02,2.95 13.1,3.59L11.56,3.59C10.46,3.83 9.57,4.26 8.56,4.59C8.32,4.66 8.29,4.92 8.05,4.99C8.01,5.39 7.82,5.64 7.74,5.98C7.66,7.42 7.87,8.58 7.84,9.97M11.66,5.19C12.68,5.22 13.65,5.19 14.34,4.89C14.73,4.07 14.89,3.03 14.96,1.9C14.77,1.88 14.89,1.56 14.75,1.5C14.72,1.3 14.47,1.3 14.44,1.1C14.16,0.94 13.98,0.68 13.72,0.5C12.99,0.34 12.28,0.17 11.55,0.01C10.71,0.05 9.66,-0.09 8.97,0.1C6.36,0.06 4.98,1.22 3.71,2.5C3.69,2.57 3.71,2.69 3.61,2.7C3.04,4.28 3.49,6.32 3.41,8.28C3.5,8.71 3.51,9.24 3.61,9.67C2.61,9.97 1.4,10.06 0.21,10.17C-0.1,10.49 0.03,11.26 0,11.86C0.09,12.45 0.28,12.92 0.41,13.46C0.63,13.65 1.01,13.85 1.24,13.96C1.3,13.99 1.31,14.04 1.34,14.06C1.85,14.32 2.79,14.06 3.61,14.16C3.47,16.13 3.87,18.07 3.61,19.84C3.62,20.16 3.9,20.22 3.82,20.63C3.82,21.6 3.75,22.62 4.03,23.32C3.74,23.78 3.53,24.31 3.61,25.12C3.73,25.13 3.72,25.27 3.71,25.42C3.64,25.89 4.36,25.59 4.23,26.11C4.39,26.57 3.8,26.3 3.82,26.61L3.82,27.51C4.35,27.79 5.28,27.69 6.09,27.71C6.99,27.29 8.27,27.23 8.87,26.51C9.33,26.75 9.79,26.5 10.11,26.31C10.09,26 10.38,25.98 10.31,25.61C10.31,25.29 10.14,25.12 10.21,24.72L10.21,21.83C10.01,19.54 10.16,16.89 9.9,14.65C10.79,14.55 11.82,14.58 12.48,14.26C12.84,13.8 12.86,13.02 13,12.36C13.17,12.14 13.22,11.78 13.2,11.36C13.39,11.15 13.27,10.64 13.31,10.27C13.17,9.67 13.14,8.97 12.48,8.87C11.6,8.64 10.44,9.47 9.49,9.17C9.54,8.04 9.2,6.83 9.49,5.78C10.24,5.61 10.94,5.39 11.66,5.19"/>
		</g>
	</symbol>

	<symbol id="twtr" viewBox="0 0 23.49 20.16">
		<g>
			<path d="M14.85,5.56C15.02,5.7 15.14,5.87 15.37,5.93C15.47,6.15 15.69,6.26 15.96,6.3C16.01,6.15 16.31,6.25 16.33,6.08C16.51,6.06 16.5,5.85 16.63,5.78C16.61,5.23 16.5,4.78 16.26,4.45C15.5,4.03 14.58,4.49 14.85,5.56M20.34,2.52C20.21,2.86 20.11,3.23 19.74,3.34C19.73,3.23 19.62,3.21 19.6,3.12C19.58,2.91 19.8,2.93 19.89,2.82C20.05,2.73 20.14,2.57 20.34,2.52C20.33,2.43 20.44,2.48 20.34,2.52M20.04,8.15C19.89,9.01 19.42,9.56 19,10.16C19.06,10.53 18.9,10.69 18.93,11.04C18.77,11.36 18.64,11.7 18.56,12.08C18.35,12.35 18.23,12.69 18.04,12.97C17.67,13.52 17.26,14.02 16.85,14.53C16.48,15.09 15.94,15.49 15.52,16.01C15.1,16.5 14.58,16.89 14.11,17.34C13.64,17.51 13.22,17.74 12.85,18.01C12.62,18.1 12.39,18.19 12.19,18.31C12.01,18.45 11.69,18.45 11.52,18.6C10.43,18.75 9.22,18.77 7.96,18.75C6.93,18.65 5.85,18.59 4.92,18.38C4,18.19 3.41,17.67 2.63,17.34C2.78,17.1 3.26,17.19 3.59,17.12C3.62,16.96 3.98,17.12 4.03,16.97C4.29,17.03 4.32,16.86 4.55,16.9C5.12,16.7 5.78,16.6 6.26,16.31C6.54,16.17 6.66,15.87 6.92,15.71C6.96,15.52 7.03,15.37 7.15,15.27C7.19,14.99 7.35,14.83 7.29,14.45C7.41,14.24 7.59,14.11 7.59,13.79C7.52,13.64 7.46,13.47 7.29,13.41C7.27,13.22 6.92,13.35 6.85,13.19C6.6,13.23 6.43,13.16 6.26,13.12C6.1,13.08 5.77,13.21 5.74,13.04C4.9,13.02 4.44,12.62 3.89,12.3C4.32,12.04 4.92,11.95 5.22,11.56C5.74,11.49 6.28,11.43 6.33,10.9C6.33,10.18 5.56,10.24 5,10.08C4.22,9.42 3.8,8.41 3.22,7.56C3.46,7.4 3.78,7.34 3.96,7.12C4.41,7.17 4.5,6.87 4.63,6.6C4.65,6.11 4.29,5.99 4.03,5.78C3.78,5.57 3.56,5.32 3.37,5.04C3.36,4.22 3.35,3.39 3.44,2.67C3.5,2.66 3.51,2.7 3.52,2.74C3.74,3.19 4.07,3.52 4.33,3.93C4.86,4.29 5.26,4.78 5.89,5.04C6.34,5.45 7,5.66 7.44,6.08C8.04,6.34 8.6,6.65 9.15,6.97C9.82,7.16 10.2,7.64 11.15,7.56C11.35,7.46 11.54,7.36 11.74,7.26C12,6.81 11.68,6.19 11.89,5.63C12.14,4.98 12.69,4.6 13.15,4.15C13.44,4 13.7,3.82 13.96,3.63C14.31,3.54 14.64,3.42 14.93,3.26C15.3,3.24 15.64,3.19 15.96,3.12L17.22,3.12C17.47,3.17 17.7,3.23 17.96,3.26C18.17,3.4 18.34,3.58 18.63,3.63C19.42,4.33 19.9,5.33 20.04,6.67C19.92,7.16 20.09,7.55 20.04,8.15M23.45,4.08C23.22,3.71 22.54,3.8 22.04,3.71L20.93,3.71C21.07,3.36 21.27,3.06 21.45,2.74C21.5,2.31 21.7,2.01 21.67,1.48C21.8,1.32 21.85,1.07 21.97,0.89C22.07,0.75 22.21,0.41 22.04,0.23C21.99,0 21.75,-0.01 21.45,0C21.36,0.04 21.28,0.08 21.23,0.15C20.78,0.58 20.45,1.16 19.97,1.56C19.96,1.57 19.9,1.56 19.89,1.56C19.8,1.56 19.86,1.61 19.82,1.63C19.67,1.73 19.56,1.79 19.45,1.86C19.16,2.03 18.9,2.3 18.56,2.37C18.03,2.16 17.4,2.05 16.71,2C15.55,2.11 14.4,2.22 13.67,2.75C12.76,3.09 12.19,3.79 11.52,4.38C11.47,4.7 11.18,4.77 11.15,5.12C11.14,5.16 11.14,5.2 11.07,5.19C11.12,5.43 11.02,5.54 11,5.71C11,5.84 11.2,6.14 11,6.23C10.18,6.11 9.51,5.6 8.85,5.26C8.13,4.9 7.38,4.66 6.78,4.15C6.06,3.83 5.52,3.34 5,2.82C4.79,2.51 4.46,2.32 4.33,1.93C3.95,1.77 4.16,1.02 3.59,1.04C3.27,1 3.25,1.24 3.15,1.41C3.08,1.64 2.78,1.64 2.77,1.93C2.77,1.98 2.76,2.02 2.7,2C2.53,3.09 2.17,4 2.18,5.26C2.31,5.68 2.53,6 2.77,6.3C2.36,6.35 2.06,6.52 1.88,6.82C1.83,7.89 2.26,8.47 2.63,9.12C2.76,9.5 2.98,9.8 3.22,10.08C3.24,10.31 3.43,10.37 3.52,10.53C3.53,10.63 3.64,10.65 3.66,10.75C3.62,10.85 3.95,10.93 3.74,10.97C3.32,11.1 2.72,11.04 2.48,11.34C2.37,11.62 2.37,12.17 2.48,12.45C2.51,12.69 2.76,12.71 2.77,12.97C3.27,13.39 3.86,13.72 4.41,14.08C4.98,14.25 5.62,14.35 6.26,14.45C6.16,14.8 5.92,15 5.66,15.19C4.88,15.58 3.82,15.67 2.92,15.93C2.37,15.97 1.97,16.16 1.37,16.16C1.03,16.28 0.51,16.23 0.25,16.38C0.13,16.45 0.15,16.48 0.03,16.6C-0.09,17.01 0.14,17.34 0.48,17.49C0.47,17.74 0.7,17.77 0.85,17.86C0.94,18.04 1.1,18.15 1.29,18.23C1.84,18.7 2.56,18.99 3.22,19.34C4.05,19.53 4.87,19.72 5.74,19.86C6.63,19.98 7.64,19.99 8.55,20.08L9.52,20.08C10.03,20.22 10.75,20.14 11.37,20.16C11.46,20.06 11.69,20.08 11.89,20.08C12.41,19.82 13.08,19.7 13.52,19.34C14.09,19.1 14.51,18.7 15.08,18.45C15.94,17.69 17.01,17.13 17.59,16.08C17.8,15.89 17.95,15.64 18.04,15.34C18.3,15.19 18.42,14.89 18.63,14.67C19.04,14.26 19.34,13.75 19.67,13.27C19.99,12.77 20.25,12.21 20.56,11.71C20.55,11.31 20.87,11.23 20.86,10.82C21.05,10.6 21.03,10.16 21.23,9.93C21.19,9.68 21.26,9.52 21.3,9.34C21.35,8.06 21.25,6.92 21,5.93C21.59,5.78 22.18,5.63 22.63,5.34C23.16,5.15 23.63,4.76 23.45,4.08"/>
		</g>
	</symbol>

	<symbol id="htmlA" viewBox="0 0 154.38 195.32">
		<g>
			<path d="M143.85,70.35L76.83,30.84L76.83,30.83L76.82,30.84L76.81,30.83L76.81,30.84L10.53,70.3L10.53,17.57L77.19,10.58L143.85,17.57ZM143.79,77.34L125.56,88.09L117.14,93.05L76.99,69.16L76.92,76.11L111.24,96.52L110.94,96.7L110.2,97.14L105.32,100.01L76.99,83.15L76.92,90.1L99.29,103.4L94.01,106.93L93.88,107.01L76.99,97.06L76.92,104.01L88.01,110.54L76.72,117.31L10.67,78.06L76.81,38.3L76.81,38.31ZM143.85,143.4L77.19,183.06L10.53,143.4L10.53,85.79L76.9,125.29L77.01,132.45L31.48,105.35L31.41,112.3L77.13,139.78L77.24,147.13L31.54,119.94L31.47,126.89L77.19,154.37L123.34,126.75L123.34,119.77L123.28,119.8L123.28,117.42L123.28,114.55L123.28,97.1L143.85,84.82ZM77.99,0.58L77.19,0.5L0.5,8.54L0.5,149.11L77.19,194.74L153.88,149.11L153.88,8.54Z"/>
		</g>
		<g>
			<path d="M143.85,70.35L76.83,30.84L76.83,30.83L76.82,30.84L76.81,30.83L76.81,30.84L10.53,70.3L10.53,17.57L77.19,10.58L143.85,17.57L143.85,70.35ZM143.79,77.34L125.56,88.09L117.14,93.05L76.99,69.16L76.92,76.11L111.24,96.52L110.94,96.7L110.2,97.14L105.32,100.01L76.99,83.15L76.92,90.1L99.29,103.4L94.01,106.93L93.88,107.01L76.99,97.06L76.92,104.01L88.01,110.54L76.72,117.31L10.67,78.06L76.81,38.3L76.81,38.31L143.79,77.34ZM143.85,143.4L77.19,183.06L10.53,143.4L10.53,85.79L76.9,125.29L77.01,132.45L31.48,105.35L31.41,112.3L77.13,139.78L77.24,147.13L31.54,119.94L31.47,126.89L77.19,154.37L123.34,126.75L123.34,119.77L123.28,119.8L123.28,117.42L123.28,114.55L123.28,97.1L143.85,84.82L143.85,143.4ZM77.99,0.58L77.19,0.5L0.5,8.54L0.5,149.11L77.19,194.74L153.88,149.11L153.88,8.54L77.99,0.58Z"/>
		</g>
	</symbol>
	<symbol id="flag" viewBox="0 0 46.67 81.69">
		<g>
			<path d="M0 0L3.8 0L3.8 81.69L0 81.69ZM0,0M7.78,42.79L46.67,23.33L7.78,3.89Z"/>
		</g>
		<g fill="#231f20">
			<path d="M0 0L3.8 0L3.8 81.69L0 81.69Z"/>
		</g>
	</symbol>
	<symbol id="about1" viewBox="0 0 31.97 37.3">
		<g>
			<path d="M0,21.31C0,30.14 7.15,37.3 15.98,37.3C15.98,28.47 8.82,21.31 0,21.31M15.98,7.99C18.43,7.99 20.42,9.98 20.42,12.43C20.42,14.88 18.43,16.87 15.98,16.87C13.53,16.87 11.54,14.88 11.54,12.43C11.54,9.98 13.53,7.99 15.98,7.99M4.62,16.43C4.62,18.88 6.61,20.87 9.06,20.87C10,20.87 10.87,20.57 11.58,20.08L11.54,20.42C11.54,22.87 13.53,24.86 15.98,24.86C18.43,24.86 20.42,22.87 20.42,20.42L20.38,20.08C21.1,20.58 21.97,20.87 22.9,20.87C25.35,20.87 27.34,18.88 27.34,16.43C27.34,14.66 26.3,13.14 24.8,12.43C26.29,11.72 27.34,10.2 27.34,8.43C27.34,5.98 25.35,3.99 22.9,3.99C21.97,3.99 21.1,4.28 20.38,4.77L20.42,4.44C20.42,1.98 18.43,0 15.98,0C13.53,0 11.54,1.98 11.54,4.44L11.58,4.77C10.86,4.28 10,3.99 9.06,3.99C6.61,3.99 4.62,5.98 4.62,8.43C4.62,10.2 5.66,11.72 7.16,12.43C5.66,13.14 4.62,14.66 4.62,16.43M15.98,37.3C24.81,37.3 31.97,30.14 31.97,21.31C23.14,21.31 15.98,28.47 15.98,37.3"/>
		</g>
	</symbol>	
	<symbol id="about2" viewBox="0 0 46.57 27.33">
		<g>
			<path d="M3.02 2.71L43.22 2.71L43.22 24.94L3.02 24.94ZM3.02,24.94M42.66,0L3.9,0C1.74,0 0,1.74 0,3.9L0,23.42C0,25.58 1.74,27.33 3.9,27.33L42.66,27.33C44.82,27.33 46.57,25.58 46.57,23.42L46.57,3.9C46.57,1.74 44.82,0 42.66,0"/>
			<path d="M23.28,8.51C26.22,8.51 28.6,10.89 28.6,13.83C28.6,16.76 26.22,19.14 23.28,19.14C20.35,19.14 17.97,16.76 17.97,13.83C17.97,10.89 20.35,8.51 23.28,8.51M6.92 6.62L39.32 6.62L39.32 21.04L6.92 21.04Z"/>
		</g>
	</symbol>	
	<symbol id="about3" viewBox="0 0 33.05 27.85">
		<g>
			<path d="M33.05,8.73C33.05,3.91 29.13,0 24.31,0C20.9,0 17.96,1.95 16.52,4.79C15.08,1.95 12.14,0 8.73,0C3.91,0 0,3.91 0,8.73C0,17.86 14.65,27.85 16.52,27.85C18.39,27.85 33.05,17.9 33.05,8.73"/>
		</g>
	</symbol>	
	<symbol id="about4" viewBox="0 0 34.37 34.37">
		<g>
			<path d="M0.28,14.06C-0.09,16.14 -0.09,18.27 0.29,20.36L4.41,17.15Z"/>
			<path d="M24.4,1.58C19.62,-0.62 13.95,-0.55 9.14,1.99L16.66,7.61Z"/>
			<path d="M33.9,13.17L29.09,16.92L34.02,20.61C34.52,18.17 34.48,15.63 33.9,13.17"/>
			<path d="M9.2,32.41C14.05,34.94 19.93,35.06 24.93,32.52L16.84,26.46Z"/>
			<path d="M7.91,14.43L1.68,9.76C1.36,10.43 1.08,11.12 0.85,11.82L6.16,15.79Z"/>
			<path d="M18.59,25.1L26.92,31.34C27.2,31.15 27.47,30.95 27.74,30.74C28.06,30.49 28.37,30.23 28.66,29.97L20.34,23.73Z"/>
			<path d="M11.41,11.7L4,6.15C3.53,6.7 3.11,7.28 2.73,7.88L9.66,13.07Z"/>
			<path d="M22.09,22.37L30.18,28.43C30.65,27.89 31.08,27.32 31.48,26.73L23.84,21.01Z"/>
			<path d="M14.91,8.98L7.19,3.2C7,3.34 6.81,3.48 6.62,3.62C6.22,3.93 5.84,4.26 5.48,4.59L13.16,10.34Z"/>
			<path d="M25.59,19.64L32.56,24.87C32.89,24.2 33.17,23.52 33.41,22.83L27.34,18.28Z"/>
			<path d="M26.44,2.7L0.88,22.62C1.11,23.32 1.39,24.01 1.71,24.68L28.23,4.02C27.66,3.54 27.06,3.1 26.44,2.7"/>
			<path d="M30.74,6.62C30.44,6.23 30.12,5.86 29.8,5.51L2.78,26.56C3.04,26.96 3.32,27.36 3.62,27.74C3.77,27.93 3.91,28.1 4.06,28.28L31.15,7.17C31.02,6.99 30.88,6.8 30.74,6.62"/>
			<path d="M32.29,8.99L5.55,29.83C6.09,30.33 6.66,30.8 7.25,31.22L33.22,10.99C32.95,10.31 32.65,9.64 32.29,8.99"/>
		</g>
	</symbol>	
	<symbol id="about5" viewBox="0 0 54.15 23.18">
		<g>
			<path d="M40.31,5.71C36.66,4.74 32.47,4.04 27.95,4.04C25.06,4.04 22.49,4.28 20.24,4.66L13.45,0L0,0L5.81,6.18L14.25,6.18C9.67,7.78 7.5,9.7 7.5,9.7L7.5,13.48C7.5,13.48 9.81,15.39 14.43,16.99L5.81,16.99L0,23.18L13.45,23.18L20.27,18.49C22.53,18.88 25.09,19.13 27.95,19.13C32.47,19.13 36.66,18.44 40.31,17.47C39.13,15.69 38.39,13.72 38.39,11.59C38.39,9.45 39.13,7.48 40.31,5.71"/>
			<path d="M43.73,6.74C42.45,8.35 41.76,9.99 41.76,11.58C41.76,13.18 42.44,14.82 43.73,16.43C50.13,14.26 54.15,11.59 54.15,11.59C54.15,11.59 50.13,8.91 43.73,6.74"/>
		</g>
	</symbol>	
	<symbol id="about6" viewBox="0 0 32.66 32.48">
		<g>
			<path d="M17.27 18.57L29.77 18.57L29.77 32.48L17.27 32.48ZM19.25,4.9C19.8,4.1 20.46,3.43 21.13,2.98C21.81,2.53 22.5,2.3 23.18,2.3L23.19,2.3C23.76,2.3 24.3,2.52 24.68,2.85C25.06,3.18 25.25,3.59 25.25,4.02C25.25,4.53 24.98,5.28 23.79,6.15C22.65,6.97 20.69,7.82 17.66,8.41C17.95,7.21 18.51,5.94 19.25,4.9M8.71,6.52C8.09,6.13 7.71,5.74 7.49,5.39C7.27,5.03 7.2,4.73 7.19,4.42C7.19,3.92 7.44,3.38 7.89,2.96C8.32,2.55 8.91,2.3 9.45,2.3L9.46,2.3C10.14,2.3 10.83,2.53 11.51,2.98C12.52,3.65 13.48,4.83 14.15,6.17C14.49,6.84 14.76,7.56 14.94,8.25C11.86,7.93 9.86,7.25 8.71,6.52M31.07,8.86L23.74,8.86C24.26,8.59 24.72,8.31 25.13,8.02C26.72,6.88 27.56,5.45 27.55,4.02C27.56,2.85 27,1.82 26.19,1.12C25.39,0.41 24.32,0 23.18,0C21.96,0 20.83,0.42 19.86,1.06C18.4,2.04 17.25,3.52 16.43,5.13C16.39,5.21 16.36,5.29 16.32,5.37C16.02,4.75 15.67,4.14 15.28,3.58C14.59,2.59 13.76,1.72 12.78,1.07C11.81,0.42 10.68,0 9.46,0C8.25,0 7.14,0.51 6.3,1.29C5.48,2.07 4.89,3.18 4.89,4.43C4.89,5.16 5.1,5.92 5.54,6.61C6.09,7.49 6.96,8.24 8.17,8.86L1.59,8.86C0.71,8.86 0,9.57 0,10.45L0,16.35L15.39,16.35L15.39,8.86L17.27,8.86L17.27,16.35L32.66,16.35L32.66,10.45C32.66,9.57 31.95,8.86 31.07,8.86M2.89 18.57L15.39 18.57L15.39 32.48L2.89 32.48Z"/>
		</g>
	</symbol>	
	<symbol id="camera" viewBox="0 0 32 22">
		<g>
			<path d="M20,11C20,10.44 19.55,10 19,10L15,10C14.44,10 14,10.44 14,11C14,11.55 14.44,12 15,12L19,12C19.55,12 20,11.55 20,11M4 10L12 10L12 18L4 18ZM24,10L24,18C24,20.2 22.2,22 20,22L4,22C1.79,22 0,20.2 0,18L0,10C0,7.79 1.79,6 4,6L14,6C14,4.89 14.89,4 16,4L16,2L5,2C4.44,2 4,1.55 4,1C4,0.44 4.44,0 5,0L17,0C17.55,0 18,0.44 18,1L18,4C19.1,4 20,4.89 20,6C22.2,6 24,7.79 24,10M26,10L32,6L32,22L26,18Z"/>
		</g>
	</symbol>	
	<symbol id="play-btn" viewBox="0 0 100.67 76.89">
		<g>
			<path d="M96.95,18.14C96.95,18.14 96.03,11.14 93.17,8.07C89.53,4.03 85.49,4 83.63,3.77C70.3,2.75 50.32,2.75 50.32,2.75L50.27,2.75C50.27,2.75 30.29,2.75 16.97,3.77C15.1,4 11.06,4.03 7.43,8.07C4.59,11.16 3.64,18.14 3.64,18.14C3.64,18.14 2.75,26.36 2.75,34.57L2.75,42.27C2.75,50.48 3.69,58.69 3.69,58.69C3.69,58.69 4.61,65.7 7.48,68.76C11.11,72.81 15.84,72.68 17.96,73.11C25.59,73.88 50.32,74.14 50.32,74.14C50.32,74.14 70.32,74.11 83.65,73.09C85.52,72.86 89.56,72.83 93.19,68.79C96.03,65.72 96.97,58.71 96.97,58.71C96.97,58.71 97.92,50.5 97.92,42.29L97.92,34.59C97.9,26.36 96.95,18.14 96.95,18.14"/>
		</g>
		<g fill="white">	
			<path d="M18.37,70.39C25.84,71.12 49.58,71.38 50.33,71.39C50.99,71.38 70.47,71.34 83.38,70.35C83.56,70.33 83.75,70.31 83.96,70.29C85.8,70.1 88.57,69.82 91.15,66.95L91.17,66.92C93,64.95 94.03,59.99 94.25,58.37C94.31,57.86 95.17,50.01 95.17,42.29L95.17,34.59C95.15,26.83 94.28,18.97 94.22,18.48C93.9,16.1 92.79,11.69 91.16,9.94L91.12,9.91C88.55,7.04 85.77,6.76 83.94,6.57C83.73,6.55 83.53,6.53 83.36,6.51C70.29,5.51 50.52,5.5 50.32,5.5L50.27,5.5C50.07,5.5 30.3,5.51 17.24,6.51C17.06,6.53 16.87,6.55 16.66,6.57C14.82,6.76 12.05,7.04 9.47,9.91L9.45,9.93C7.63,11.92 6.6,16.85 6.37,18.48C6.31,19.07 5.5,26.88 5.5,34.57L5.5,42.27C5.5,50.02 6.37,57.87 6.42,58.35C6.74,60.73 7.86,65.14 9.49,66.89L9.52,66.93C11.85,69.51 14.83,69.9 17,70.19C17.48,70.25 17.94,70.31 18.37,70.39M50.31,76.89L50.29,76.89C49.28,76.87 25.35,76.62 17.69,75.85L17.55,75.83L17.41,75.81C17.14,75.75 16.75,75.7 16.29,75.64C13.78,75.31 9.13,74.7 5.45,70.62C2.09,67 1.07,59.85 0.97,59.04L0.96,59C0.92,58.66 0,50.54 0,42.27L0,34.57C0,26.3 0.87,18.19 0.91,17.85L0.92,17.78C1.02,16.97 2.07,9.85 5.39,6.22C9.39,1.78 13.92,1.32 16.1,1.1C16.29,1.08 16.47,1.06 16.63,1.04L16.76,1.03C30.03,0.01 50.07,0 50.27,0L50.32,0C50.52,0 70.56,0.01 83.84,1.03L83.96,1.04C84.12,1.06 84.3,1.08 84.49,1.1C86.67,1.32 91.2,1.78 95.19,6.21C98.55,9.83 99.57,16.98 99.68,17.79L99.68,17.83C99.72,18.17 100.65,26.29 100.67,34.58L100.67,42.29C100.67,50.56 99.75,58.69 99.71,59.03L99.7,59.08C99.59,59.88 98.55,67.03 95.22,70.64C91.23,75.08 86.7,75.54 84.52,75.76C84.32,75.78 84.14,75.8 83.99,75.82L83.86,75.83C70.58,76.85 50.53,76.89 50.33,76.89Z"/>
			<path d="M38.43,20.57L38.43,56.28L68.18,38.43Z"/>
		</g>
	</symbol>	
	<symbol id="" viewBox="">
		<g>

		</g>
	</symbol>	

</svg>