<svg xmlns="http://www.w3.org/2000/svg" width="32" height="22" viewBox="0 0 32 22">
	<style type="text/css">
		.st0{fill:#000000;}
	</style>
	<path class="st0" d="M20,11C20,10.44 19.55,10 19,10L15,10C14.44,10 14,10.44 14,11C14,11.55 14.44,12 15,12L19,12C19.55,12 20,11.55 20,11M4 10L12 10L12 18L4 18ZM24,10L24,18C24,20.2 22.2,22 20,22L4,22C1.79,22 0,20.2 0,18L0,10C0,7.79 1.79,6 4,6L14,6C14,4.89 14.89,4 16,4L16,2L5,2C4.44,2 4,1.55 4,1C4,0.44 4.44,0 5,0L17,0C17.55,0 18,0.44 18,1L18,4C19.1,4 20,4.89 20,6C22.2,6 24,7.79 24,10M26,10L32,6L32,22L26,18Z"/>
</svg>